<svg width="560" height="271" viewBox="0 0 560 271" fill="none" xmlns="http://www.w3.org/2000/svg">
<ellipse cx="265.5" cy="265.642" rx="4.5" ry="4.5" transform="rotate(180 265.5 265.642)" fill="#F1FCF4"/>
<ellipse cx="236.5" cy="265.642" rx="4.5" ry="4.5" transform="rotate(180 236.5 265.642)" fill="#F1FCF4"/>
<ellipse cx="207.5" cy="265.642" rx="4.5" ry="4.5" transform="rotate(180 207.5 265.642)" fill="#F1FCF4"/>
<ellipse cx="178.5" cy="265.642" rx="4.5" ry="4.5" transform="rotate(180 178.5 265.642)" fill="#F1FCF4"/>
<ellipse cx="149.5" cy="265.642" rx="4.5" ry="4.5" transform="rotate(180 149.5 265.642)" fill="#F1FCF4"/>
<ellipse cx="120.5" cy="265.642" rx="4.5" ry="4.5" transform="rotate(180 120.5 265.642)" fill="#F1FCF4"/>
<ellipse cx="91.5" cy="265.642" rx="4.5" ry="4.5" transform="rotate(180 91.5 265.642)" fill="#F1FCF4"/>
<ellipse cx="62.5" cy="265.642" rx="4.5" ry="4.5" transform="rotate(180 62.5 265.642)" fill="#F1FCF4"/>
<ellipse cx="33.5" cy="265.642" rx="4.5" ry="4.5" transform="rotate(180 33.5 265.642)" fill="#F1FCF4"/>
<ellipse cx="4.5" cy="265.642" rx="4.5" ry="4.5" transform="rotate(180 4.5 265.642)" fill="#F1FCF4"/>
<ellipse cx="555.5" cy="265.642" rx="4.5" ry="4.49999" transform="rotate(180 555.5 265.642)" fill="#F1FCF4"/>
<ellipse cx="526.5" cy="265.642" rx="4.5" ry="4.49999" transform="rotate(180 526.5 265.642)" fill="#F1FCF4"/>
<ellipse cx="497.5" cy="265.642" rx="4.5" ry="4.49999" transform="rotate(180 497.5 265.642)" fill="#F1FCF4"/>
<ellipse cx="468.5" cy="265.642" rx="4.5" ry="4.49999" transform="rotate(180 468.5 265.642)" fill="#F1FCF4"/>
<ellipse cx="439.5" cy="265.642" rx="4.5" ry="4.49999" transform="rotate(180 439.5 265.642)" fill="#F1FCF4"/>
<ellipse cx="410.5" cy="265.642" rx="4.5" ry="4.49999" transform="rotate(180 410.5 265.642)" fill="#F1FCF4"/>
<ellipse cx="381.5" cy="265.642" rx="4.49999" ry="4.49999" transform="rotate(180 381.5 265.642)" fill="#F1FCF4"/>
<ellipse cx="352.5" cy="265.642" rx="4.49999" ry="4.49999" transform="rotate(180 352.5 265.642)" fill="#F1FCF4"/>
<ellipse cx="323.5" cy="265.642" rx="4.50001" ry="4.49999" transform="rotate(180 323.5 265.642)" fill="#F1FCF4"/>
<ellipse cx="294.5" cy="265.642" rx="4.5" ry="4.49999" transform="rotate(180 294.5 265.642)" fill="#F1FCF4"/>
<ellipse cx="265.5" cy="236.642" rx="4.5" ry="4.5" transform="rotate(180 265.5 236.642)" fill="#F1FCF4"/>
<ellipse cx="236.5" cy="236.642" rx="4.5" ry="4.5" transform="rotate(180 236.5 236.642)" fill="#82CB96"/>
<ellipse cx="207.5" cy="236.642" rx="4.5" ry="4.5" transform="rotate(180 207.5 236.642)" fill="#F1FCF4"/>
<ellipse cx="178.5" cy="236.642" rx="4.5" ry="4.5" transform="rotate(180 178.5 236.642)" fill="#F1FCF4"/>
<ellipse cx="149.5" cy="236.642" rx="4.5" ry="4.5" transform="rotate(180 149.5 236.642)" fill="#F1FCF4"/>
<ellipse cx="120.5" cy="236.642" rx="4.5" ry="4.5" transform="rotate(180 120.5 236.642)" fill="#F1FCF4"/>
<ellipse cx="91.5" cy="236.642" rx="4.5" ry="4.5" transform="rotate(180 91.5 236.642)" fill="#F1FCF4"/>
<ellipse cx="62.5" cy="236.642" rx="4.5" ry="4.5" transform="rotate(180 62.5 236.642)" fill="#F1FCF4"/>
<ellipse cx="33.5" cy="236.642" rx="4.5" ry="4.5" transform="rotate(180 33.5 236.642)" fill="#F1FCF4"/>
<ellipse cx="4.5" cy="236.642" rx="4.5" ry="4.5" transform="rotate(180 4.5 236.642)" fill="#F1FCF4"/>
<ellipse cx="555.5" cy="236.642" rx="4.5" ry="4.49999" transform="rotate(180 555.5 236.642)" fill="#F1FCF4"/>
<ellipse cx="526.5" cy="236.642" rx="4.5" ry="4.49999" transform="rotate(180 526.5 236.642)" fill="#F1FCF4"/>
<ellipse cx="497.5" cy="236.642" rx="4.5" ry="4.49999" transform="rotate(180 497.5 236.642)" fill="#F1FCF4"/>
<ellipse cx="468.5" cy="236.642" rx="4.5" ry="4.49999" transform="rotate(180 468.5 236.642)" fill="#F1FCF4"/>
<ellipse cx="439.5" cy="236.642" rx="4.5" ry="4.49999" transform="rotate(180 439.5 236.642)" fill="#F1FCF4"/>
<ellipse cx="410.5" cy="236.642" rx="4.5" ry="4.49999" transform="rotate(180 410.5 236.642)" fill="#F1FCF4"/>
<ellipse cx="381.5" cy="236.642" rx="4.49999" ry="4.49999" transform="rotate(180 381.5 236.642)" fill="#F1FCF4"/>
<ellipse cx="352.5" cy="236.642" rx="4.49999" ry="4.49999" transform="rotate(180 352.5 236.642)" fill="#F1FCF4"/>
<ellipse cx="323.5" cy="236.642" rx="4.50001" ry="4.49999" transform="rotate(180 323.5 236.642)" fill="#F1FCF4"/>
<ellipse cx="294.5" cy="236.642" rx="4.5" ry="4.49999" transform="rotate(180 294.5 236.642)" fill="#F1FCF4"/>
<ellipse cx="265.5" cy="207.642" rx="4.5" ry="4.5" transform="rotate(180 265.5 207.642)" fill="#F1FCF4"/>
<ellipse cx="236.5" cy="207.642" rx="4.5" ry="4.5" transform="rotate(180 236.5 207.642)" fill="#F1FCF4"/>
<ellipse cx="207.5" cy="207.642" rx="4.5" ry="4.5" transform="rotate(180 207.5 207.642)" fill="#F1FCF4"/>
<ellipse cx="178.5" cy="207.642" rx="4.5" ry="4.5" transform="rotate(180 178.5 207.642)" fill="#F1FCF4"/>
<ellipse cx="149.5" cy="207.642" rx="4.5" ry="4.5" transform="rotate(180 149.5 207.642)" fill="#F1FCF4"/>
<ellipse cx="120.5" cy="207.642" rx="4.5" ry="4.5" transform="rotate(180 120.5 207.642)" fill="#F1FCF4"/>
<ellipse cx="91.5" cy="207.642" rx="4.5" ry="4.5" transform="rotate(180 91.5 207.642)" fill="#F1FCF4"/>
<ellipse cx="62.5" cy="207.642" rx="4.5" ry="4.5" transform="rotate(180 62.5 207.642)" fill="#F1FCF4"/>
<ellipse cx="33.5" cy="207.642" rx="4.5" ry="4.5" transform="rotate(180 33.5 207.642)" fill="#F1FCF4"/>
<ellipse cx="4.5" cy="207.642" rx="4.5" ry="4.5" transform="rotate(180 4.5 207.642)" fill="#F1FCF4"/>
<ellipse cx="555.5" cy="207.642" rx="4.5" ry="4.49999" transform="rotate(180 555.5 207.642)" fill="#F1FCF4"/>
<ellipse cx="526.5" cy="207.642" rx="4.5" ry="4.49999" transform="rotate(180 526.5 207.642)" fill="#F1FCF4"/>
<ellipse cx="497.5" cy="207.642" rx="4.5" ry="4.49999" transform="rotate(180 497.5 207.642)" fill="#F1FCF4"/>
<ellipse cx="468.5" cy="207.642" rx="4.5" ry="4.49999" transform="rotate(180 468.5 207.642)" fill="#F1FCF4"/>
<ellipse cx="439.5" cy="207.642" rx="4.5" ry="4.49999" transform="rotate(180 439.5 207.642)" fill="#F1FCF4"/>
<ellipse cx="410.5" cy="207.642" rx="4.5" ry="4.49999" transform="rotate(180 410.5 207.642)" fill="#F1FCF4"/>
<ellipse cx="381.5" cy="207.642" rx="4.49999" ry="4.49999" transform="rotate(180 381.5 207.642)" fill="#F1FCF4"/>
<ellipse cx="352.5" cy="207.642" rx="4.49999" ry="4.49999" transform="rotate(180 352.5 207.642)" fill="#F1FCF4"/>
<ellipse cx="323.5" cy="207.642" rx="4.50001" ry="4.49999" transform="rotate(180 323.5 207.642)" fill="#F1FCF4"/>
<ellipse cx="294.5" cy="207.642" rx="4.5" ry="4.49999" transform="rotate(180 294.5 207.642)" fill="#F1FCF4"/>
<ellipse cx="265.5" cy="178.642" rx="4.5" ry="4.5" transform="rotate(180 265.5 178.642)" fill="#F1FCF4"/>
<ellipse cx="236.5" cy="178.642" rx="4.5" ry="4.5" transform="rotate(180 236.5 178.642)" fill="#F1FCF4"/>
<ellipse cx="207.5" cy="178.642" rx="4.5" ry="4.5" transform="rotate(180 207.5 178.642)" fill="#F1FCF4"/>
<ellipse cx="178.5" cy="178.642" rx="4.5" ry="4.5" transform="rotate(180 178.5 178.642)" fill="#F1FCF4"/>
<ellipse cx="149.5" cy="178.642" rx="4.5" ry="4.5" transform="rotate(180 149.5 178.642)" fill="#F1FCF4"/>
<ellipse cx="120.5" cy="178.642" rx="4.5" ry="4.5" transform="rotate(180 120.5 178.642)" fill="#F1FCF4"/>
<ellipse cx="91.5" cy="178.642" rx="4.5" ry="4.5" transform="rotate(180 91.5 178.642)" fill="#F1FCF4"/>
<ellipse cx="62.5" cy="178.642" rx="4.5" ry="4.5" transform="rotate(180 62.5 178.642)" fill="#F1FCF4"/>
<ellipse cx="33.5" cy="178.642" rx="4.5" ry="4.5" transform="rotate(180 33.5 178.642)" fill="#F1FCF4"/>
<ellipse cx="4.5" cy="178.642" rx="4.5" ry="4.5" transform="rotate(180 4.5 178.642)" fill="#F1FCF4"/>
<ellipse cx="555.5" cy="178.642" rx="4.5" ry="4.49999" transform="rotate(180 555.5 178.642)" fill="#F1FCF4"/>
<ellipse cx="526.5" cy="178.642" rx="4.5" ry="4.49999" transform="rotate(180 526.5 178.642)" fill="#F1FCF4"/>
<ellipse cx="497.5" cy="178.642" rx="4.5" ry="4.49999" transform="rotate(180 497.5 178.642)" fill="#F1FCF4"/>
<ellipse cx="468.5" cy="178.642" rx="4.5" ry="4.49999" transform="rotate(180 468.5 178.642)" fill="#F1FCF4"/>
<ellipse cx="439.5" cy="178.642" rx="4.5" ry="4.49999" transform="rotate(180 439.5 178.642)" fill="#F1FCF4"/>
<ellipse cx="410.5" cy="178.642" rx="4.5" ry="4.49999" transform="rotate(180 410.5 178.642)" fill="#F1FCF4"/>
<ellipse cx="381.5" cy="178.642" rx="4.49999" ry="4.49999" transform="rotate(180 381.5 178.642)" fill="#F1FCF4"/>
<ellipse cx="352.5" cy="178.642" rx="4.49999" ry="4.49999" transform="rotate(180 352.5 178.642)" fill="#F1FCF4"/>
<ellipse cx="323.5" cy="178.642" rx="4.50001" ry="4.49999" transform="rotate(180 323.5 178.642)" fill="#F1FCF4"/>
<ellipse cx="294.5" cy="178.642" rx="4.5" ry="4.49999" transform="rotate(180 294.5 178.642)" fill="#F1FCF4"/>
<ellipse cx="265.5" cy="149.642" rx="4.5" ry="4.5" transform="rotate(180 265.5 149.642)" fill="#F1FCF4"/>
<ellipse cx="236.5" cy="149.642" rx="4.5" ry="4.5" transform="rotate(180 236.5 149.642)" fill="#F1FCF4"/>
<ellipse cx="207.5" cy="149.642" rx="4.5" ry="4.5" transform="rotate(180 207.5 149.642)" fill="#F1FCF4"/>
<ellipse cx="178.5" cy="149.642" rx="4.5" ry="4.5" transform="rotate(180 178.5 149.642)" fill="#F1FCF4"/>
<ellipse cx="149.5" cy="149.642" rx="4.5" ry="4.5" transform="rotate(180 149.5 149.642)" fill="#F1FCF4"/>
<ellipse cx="120.5" cy="149.642" rx="4.5" ry="4.5" transform="rotate(180 120.5 149.642)" fill="#F1FCF4"/>
<ellipse cx="91.5" cy="149.642" rx="4.5" ry="4.5" transform="rotate(180 91.5 149.642)" fill="#F1FCF4"/>
<ellipse cx="62.5" cy="149.642" rx="4.5" ry="4.5" transform="rotate(180 62.5 149.642)" fill="#F1FCF4"/>
<ellipse cx="33.5" cy="149.642" rx="4.5" ry="4.5" transform="rotate(180 33.5 149.642)" fill="#F1FCF4"/>
<ellipse cx="4.5" cy="149.642" rx="4.5" ry="4.5" transform="rotate(180 4.5 149.642)" fill="#F1FCF4"/>
<ellipse cx="555.5" cy="149.642" rx="4.5" ry="4.49999" transform="rotate(180 555.5 149.642)" fill="#F1FCF4"/>
<ellipse cx="526.5" cy="149.642" rx="4.5" ry="4.49999" transform="rotate(180 526.5 149.642)" fill="#F1FCF4"/>
<ellipse cx="497.5" cy="149.642" rx="4.5" ry="4.49999" transform="rotate(180 497.5 149.642)" fill="#F1FCF4"/>
<ellipse cx="468.5" cy="149.642" rx="4.5" ry="4.49999" transform="rotate(180 468.5 149.642)" fill="#F1FCF4"/>
<ellipse cx="439.5" cy="149.642" rx="4.5" ry="4.49999" transform="rotate(180 439.5 149.642)" fill="#F1FCF4"/>
<ellipse cx="410.5" cy="149.642" rx="4.5" ry="4.49999" transform="rotate(180 410.5 149.642)" fill="#F1FCF4"/>
<ellipse cx="381.5" cy="149.642" rx="4.49999" ry="4.49999" transform="rotate(180 381.5 149.642)" fill="#F1FCF4"/>
<ellipse cx="352.5" cy="149.642" rx="4.49999" ry="4.49999" transform="rotate(180 352.5 149.642)" fill="#F1FCF4"/>
<ellipse cx="323.5" cy="149.642" rx="4.50001" ry="4.49999" transform="rotate(180 323.5 149.642)" fill="#F1FCF4"/>
<ellipse cx="294.5" cy="149.642" rx="4.5" ry="4.49999" transform="rotate(180 294.5 149.642)" fill="#F1FCF4"/>
<circle cx="265.5" cy="120.642" r="4.5" transform="rotate(180 265.5 120.642)" fill="#F1FCF4"/>
<circle cx="236.5" cy="120.642" r="4.5" transform="rotate(180 236.5 120.642)" fill="#F1FCF4"/>
<circle cx="207.5" cy="120.642" r="4.5" transform="rotate(180 207.5 120.642)" fill="#F1FCF4"/>
<circle cx="178.5" cy="120.642" r="4.5" transform="rotate(180 178.5 120.642)" fill="#F1FCF4"/>
<circle cx="149.5" cy="120.642" r="4.5" transform="rotate(180 149.5 120.642)" fill="#F1FCF4"/>
<circle cx="120.5" cy="120.642" r="4.5" transform="rotate(180 120.5 120.642)" fill="#F1FCF4"/>
<circle cx="91.5" cy="120.642" r="4.5" transform="rotate(180 91.5 120.642)" fill="#F1FCF4"/>
<circle cx="62.5" cy="120.642" r="4.5" transform="rotate(180 62.5 120.642)" fill="#F1FCF4"/>
<circle cx="33.5" cy="120.642" r="4.5" transform="rotate(180 33.5 120.642)" fill="#F1FCF4"/>
<circle cx="4.5" cy="120.642" r="4.5" transform="rotate(180 4.5 120.642)" fill="#F1FCF4"/>
<ellipse cx="555.5" cy="120.642" rx="4.5" ry="4.49999" transform="rotate(180 555.5 120.642)" fill="#F1FCF4"/>
<ellipse cx="526.5" cy="120.642" rx="4.5" ry="4.49999" transform="rotate(180 526.5 120.642)" fill="#F1FCF4"/>
<ellipse cx="497.5" cy="120.642" rx="4.5" ry="4.49999" transform="rotate(180 497.5 120.642)" fill="#F1FCF4"/>
<ellipse cx="468.5" cy="120.642" rx="4.5" ry="4.49999" transform="rotate(180 468.5 120.642)" fill="#82CB96"/>
<ellipse cx="439.5" cy="120.642" rx="4.5" ry="4.49999" transform="rotate(180 439.5 120.642)" fill="#F1FCF4"/>
<ellipse cx="410.5" cy="120.642" rx="4.5" ry="4.49999" transform="rotate(180 410.5 120.642)" fill="#F1FCF4"/>
<circle cx="381.5" cy="120.642" r="4.49999" transform="rotate(180 381.5 120.642)" fill="#F1FCF4"/>
<circle cx="352.5" cy="120.642" r="4.49999" transform="rotate(180 352.5 120.642)" fill="#F1FCF4"/>
<ellipse cx="323.5" cy="120.642" rx="4.50001" ry="4.49999" transform="rotate(180 323.5 120.642)" fill="#F1FCF4"/>
<ellipse cx="294.5" cy="120.642" rx="4.5" ry="4.49999" transform="rotate(180 294.5 120.642)" fill="#F1FCF4"/>
<ellipse cx="526.5" cy="91.6422" rx="4.5" ry="4.49999" transform="rotate(180 526.5 91.6422)" fill="#F1FCF4"/>
<ellipse cx="497.5" cy="91.6422" rx="4.5" ry="4.49999" transform="rotate(180 497.5 91.6422)" fill="#F1FCF4"/>
<ellipse cx="468.5" cy="91.6422" rx="4.5" ry="4.49999" transform="rotate(180 468.5 91.6422)" fill="#F1FCF4"/>
<ellipse cx="439.5" cy="91.6422" rx="4.5" ry="4.49999" transform="rotate(180 439.5 91.6422)" fill="#F1FCF4"/>
<ellipse cx="410.5" cy="91.6422" rx="4.5" ry="4.49999" transform="rotate(180 410.5 91.6422)" fill="#F1FCF4"/>
<circle cx="381.5" cy="91.6422" r="4.49999" transform="rotate(180 381.5 91.6422)" fill="#F1FCF4"/>
<circle cx="352.5" cy="91.6422" r="4.49999" transform="rotate(180 352.5 91.6422)" fill="#F1FCF4"/>
<ellipse cx="323.5" cy="91.6422" rx="4.50001" ry="4.49999" transform="rotate(180 323.5 91.6422)" fill="#F1FCF4"/>
<ellipse cx="294.5" cy="91.6422" rx="4.5" ry="4.49999" transform="rotate(180 294.5 91.6422)" fill="#F1FCF4"/>
<ellipse cx="265.5" cy="91.6422" rx="4.5" ry="4.49999" transform="rotate(180 265.5 91.6422)" fill="#F1FCF4"/>
<ellipse cx="236.5" cy="91.6422" rx="4.5" ry="4.49999" transform="rotate(180 236.5 91.6422)" fill="#F1FCF4"/>
<ellipse cx="207.5" cy="91.6422" rx="4.5" ry="4.49999" transform="rotate(180 207.5 91.6422)" fill="#F1FCF4"/>
<ellipse cx="178.5" cy="91.6422" rx="4.5" ry="4.49999" transform="rotate(180 178.5 91.6422)" fill="#F1FCF4"/>
<ellipse cx="149.5" cy="91.6422" rx="4.5" ry="4.49999" transform="rotate(180 149.5 91.6422)" fill="#F1FCF4"/>
<ellipse cx="120.5" cy="91.6422" rx="4.5" ry="4.49999" transform="rotate(180 120.5 91.6422)" fill="#F1FCF4"/>
<ellipse cx="91.5" cy="91.6422" rx="4.5" ry="4.49999" transform="rotate(180 91.5 91.6422)" fill="#F1FCF4"/>
<ellipse cx="62.5" cy="91.6422" rx="4.5" ry="4.49999" transform="rotate(180 62.5 91.6422)" fill="#F1FCF4"/>
<ellipse cx="33.5" cy="91.6422" rx="4.5" ry="4.49999" transform="rotate(180 33.5 91.6422)" fill="#F1FCF4"/>
<ellipse cx="4.5" cy="91.6422" rx="4.5" ry="4.49999" transform="rotate(180 4.5 91.6422)" fill="#F1FCF4"/>
<ellipse cx="555.5" cy="91.6417" rx="4.5" ry="4.49999" transform="rotate(180 555.5 91.6417)" fill="#F1FCF4"/>
<ellipse cx="555.5" cy="62.6422" rx="4.5" ry="4.49998" transform="rotate(180 555.5 62.6422)" fill="#F1FCF4"/>
<ellipse cx="526.5" cy="62.6422" rx="4.5" ry="4.49998" transform="rotate(180 526.5 62.6422)" fill="#F1FCF4"/>
<ellipse cx="497.5" cy="62.6422" rx="4.5" ry="4.49998" transform="rotate(180 497.5 62.6422)" fill="#F1FCF4"/>
<ellipse cx="468.5" cy="62.6422" rx="4.5" ry="4.49998" transform="rotate(180 468.5 62.6422)" fill="#F1FCF4"/>
<ellipse cx="439.5" cy="62.6422" rx="4.5" ry="4.49998" transform="rotate(180 439.5 62.6422)" fill="#F1FCF4"/>
<ellipse cx="410.5" cy="62.6422" rx="4.5" ry="4.49998" transform="rotate(180 410.5 62.6422)" fill="#F1FCF4"/>
<ellipse cx="381.5" cy="62.6422" rx="4.49999" ry="4.49998" transform="rotate(180 381.5 62.6422)" fill="#F1FCF4"/>
<ellipse cx="352.5" cy="62.6422" rx="4.49999" ry="4.49998" transform="rotate(180 352.5 62.6422)" fill="#F1FCF4"/>
<ellipse cx="323.5" cy="62.6422" rx="4.50001" ry="4.49998" transform="rotate(180 323.5 62.6422)" fill="#F1FCF4"/>
<ellipse cx="294.5" cy="62.6422" rx="4.5" ry="4.49998" transform="rotate(180 294.5 62.6422)" fill="#82CB96"/>
<ellipse cx="265.5" cy="62.6422" rx="4.5" ry="4.49998" transform="rotate(180 265.5 62.6422)" fill="#F1FCF4"/>
<ellipse cx="236.5" cy="62.6422" rx="4.5" ry="4.49998" transform="rotate(180 236.5 62.6422)" fill="#F1FCF4"/>
<ellipse cx="207.5" cy="62.6422" rx="4.5" ry="4.49998" transform="rotate(180 207.5 62.6422)" fill="#F1FCF4"/>
<ellipse cx="178.5" cy="62.6422" rx="4.5" ry="4.49998" transform="rotate(180 178.5 62.6422)" fill="#F1FCF4"/>
<ellipse cx="149.5" cy="62.6422" rx="4.5" ry="4.49998" transform="rotate(180 149.5 62.6422)" fill="#F1FCF4"/>
<ellipse cx="120.5" cy="62.6422" rx="4.5" ry="4.49998" transform="rotate(180 120.5 62.6422)" fill="#F1FCF4"/>
<ellipse cx="91.5" cy="62.6422" rx="4.5" ry="4.49998" transform="rotate(180 91.5 62.6422)" fill="#F1FCF4"/>
<ellipse cx="62.5" cy="62.6422" rx="4.5" ry="4.49998" transform="rotate(180 62.5 62.6422)" fill="#F1FCF4"/>
<ellipse cx="33.5" cy="62.6422" rx="4.5" ry="4.49998" transform="rotate(180 33.5 62.6422)" fill="#F1FCF4"/>
<ellipse cx="4.5" cy="62.6422" rx="4.5" ry="4.49998" transform="rotate(180 4.5 62.6422)" fill="#F1FCF4"/>
<ellipse cx="555.5" cy="33.6421" rx="4.5" ry="4.50001" transform="rotate(180 555.5 33.6421)" fill="#F1FCF4"/>
<ellipse cx="526.5" cy="33.6421" rx="4.5" ry="4.50001" transform="rotate(180 526.5 33.6421)" fill="#F1FCF4"/>
<ellipse cx="497.5" cy="33.6421" rx="4.5" ry="4.50001" transform="rotate(180 497.5 33.6421)" fill="#F1FCF4"/>
<ellipse cx="468.5" cy="33.6421" rx="4.5" ry="4.50001" transform="rotate(180 468.5 33.6421)" fill="#F1FCF4"/>
<ellipse cx="439.5" cy="33.6421" rx="4.5" ry="4.50001" transform="rotate(180 439.5 33.6421)" fill="#F1FCF4"/>
<ellipse cx="410.5" cy="33.6421" rx="4.5" ry="4.50001" transform="rotate(180 410.5 33.6421)" fill="#F1FCF4"/>
<ellipse cx="381.5" cy="33.6421" rx="4.49999" ry="4.50001" transform="rotate(180 381.5 33.6421)" fill="#F1FCF4"/>
<ellipse cx="352.5" cy="33.6421" rx="4.49999" ry="4.50001" transform="rotate(180 352.5 33.6421)" fill="#F1FCF4"/>
<circle cx="323.5" cy="33.6421" r="4.50001" transform="rotate(180 323.5 33.6421)" fill="#F1FCF4"/>
<ellipse cx="294.5" cy="33.6421" rx="4.5" ry="4.50001" transform="rotate(180 294.5 33.6421)" fill="#F1FCF4"/>
<ellipse cx="265.5" cy="33.6421" rx="4.5" ry="4.50001" transform="rotate(180 265.5 33.6421)" fill="#F1FCF4"/>
<ellipse cx="236.5" cy="33.6421" rx="4.5" ry="4.50001" transform="rotate(180 236.5 33.6421)" fill="#F1FCF4"/>
<ellipse cx="207.5" cy="33.6421" rx="4.5" ry="4.50001" transform="rotate(180 207.5 33.6421)" fill="#F1FCF4"/>
<ellipse cx="178.5" cy="33.6421" rx="4.5" ry="4.50001" transform="rotate(180 178.5 33.6421)" fill="#F1FCF4"/>
<ellipse cx="149.5" cy="33.6421" rx="4.5" ry="4.50001" transform="rotate(180 149.5 33.6421)" fill="#F1FCF4"/>
<ellipse cx="120.5" cy="33.6421" rx="4.5" ry="4.50001" transform="rotate(180 120.5 33.6421)" fill="#F1FCF4"/>
<ellipse cx="91.5" cy="33.6421" rx="4.5" ry="4.50001" transform="rotate(180 91.5 33.6421)" fill="#F1FCF4"/>
<ellipse cx="62.5" cy="33.6421" rx="4.5" ry="4.50001" transform="rotate(180 62.5 33.6421)" fill="#F1FCF4"/>
<ellipse cx="33.5" cy="33.6421" rx="4.5" ry="4.50001" transform="rotate(180 33.5 33.6421)" fill="#F1FCF4"/>
<ellipse cx="4.5" cy="33.6421" rx="4.5" ry="4.50001" transform="rotate(180 4.5 33.6421)" fill="#F1FCF4"/>
<ellipse cx="555.5" cy="4.64215" rx="4.5" ry="4.5" transform="rotate(180 555.5 4.64215)" fill="#F1FCF4"/>
<circle cx="526.5" cy="4.64215" r="4.5" transform="rotate(180 526.5 4.64215)" fill="#F1FCF4"/>
<circle cx="497.5" cy="4.64215" r="4.5" transform="rotate(180 497.5 4.64215)" fill="#F1FCF4"/>
<circle cx="468.5" cy="4.64215" r="4.5" transform="rotate(180 468.5 4.64215)" fill="#F1FCF4"/>
<circle cx="439.5" cy="4.64215" r="4.5" transform="rotate(180 439.5 4.64215)" fill="#F1FCF4"/>
<circle cx="410.5" cy="4.64215" r="4.5" transform="rotate(180 410.5 4.64215)" fill="#F1FCF4"/>
<ellipse cx="381.5" cy="4.64215" rx="4.49999" ry="4.5" transform="rotate(180 381.5 4.64215)" fill="#F1FCF4"/>
<ellipse cx="352.5" cy="4.64215" rx="4.49999" ry="4.5" transform="rotate(180 352.5 4.64215)" fill="#F1FCF4"/>
<ellipse cx="323.5" cy="4.64215" rx="4.50001" ry="4.5" transform="rotate(180 323.5 4.64215)" fill="#F1FCF4"/>
<circle cx="294.5" cy="4.64215" r="4.5" transform="rotate(180 294.5 4.64215)" fill="#F1FCF4"/>
<ellipse cx="265.5" cy="4.64214" rx="4.5" ry="4.50002" transform="rotate(180 265.5 4.64214)" fill="#F1FCF4"/>
<ellipse cx="236.5" cy="4.64214" rx="4.5" ry="4.50002" transform="rotate(180 236.5 4.64214)" fill="#F1FCF4"/>
<ellipse cx="207.5" cy="4.64214" rx="4.5" ry="4.50002" transform="rotate(180 207.5 4.64214)" fill="#F1FCF4"/>
<ellipse cx="178.5" cy="4.64214" rx="4.5" ry="4.50002" transform="rotate(180 178.5 4.64214)" fill="#F1FCF4"/>
<ellipse cx="149.5" cy="4.64214" rx="4.5" ry="4.50002" transform="rotate(180 149.5 4.64214)" fill="#F1FCF4"/>
<ellipse cx="120.5" cy="4.64214" rx="4.5" ry="4.50002" transform="rotate(180 120.5 4.64214)" fill="#F1FCF4"/>
<ellipse cx="91.5" cy="4.64214" rx="4.5" ry="4.50002" transform="rotate(180 91.5 4.64214)" fill="#F1FCF4"/>
<ellipse cx="62.5" cy="4.64214" rx="4.5" ry="4.50002" transform="rotate(180 62.5 4.64214)" fill="#F1FCF4"/>
<ellipse cx="33.5" cy="4.64214" rx="4.5" ry="4.50002" transform="rotate(180 33.5 4.64214)" fill="#F1FCF4"/>
<ellipse cx="4.5" cy="4.64214" rx="4.5" ry="4.50002" transform="rotate(180 4.5 4.64214)" fill="#F1FCF4"/>
</svg>
