<svg width="560" height="271" viewBox="0 0 560 271" fill="none" xmlns="http://www.w3.org/2000/svg">
<circle cx="555.5" cy="265.642" r="4.5" fill="#F1FCF4"/>
<circle cx="526.5" cy="265.642" r="4.5" fill="#F1FCF4"/>
<circle cx="497.5" cy="265.642" r="4.5" fill="#F1FCF4"/>
<circle cx="468.5" cy="265.642" r="4.5" fill="#F1FCF4"/>
<circle cx="439.5" cy="265.642" r="4.5" fill="#F1FCF4"/>
<circle cx="410.5" cy="265.642" r="4.5" fill="#F1FCF4"/>
<circle cx="381.5" cy="265.642" r="4.5" fill="#F1FCF4"/>
<circle cx="352.5" cy="265.642" r="4.5" fill="#F1FCF4"/>
<circle cx="323.5" cy="265.642" r="4.5" fill="#F1FCF4"/>
<circle cx="294.5" cy="265.642" r="4.5" fill="#F1FCF4"/>
<circle cx="265.5" cy="265.642" r="4.5" fill="#F1FCF4"/>
<circle cx="236.5" cy="265.642" r="4.5" fill="#F1FCF4"/>
<circle cx="207.5" cy="265.642" r="4.5" fill="#F1FCF4"/>
<circle cx="178.5" cy="265.642" r="4.5" fill="#F1FCF4"/>
<circle cx="149.5" cy="265.642" r="4.5" fill="#F1FCF4"/>
<circle cx="120.5" cy="265.642" r="4.5" fill="#F1FCF4"/>
<circle cx="91.5" cy="265.642" r="4.5" fill="#F1FCF4"/>
<circle cx="62.5" cy="265.642" r="4.5" fill="#F1FCF4"/>
<circle cx="33.5" cy="265.642" r="4.5" fill="#F1FCF4"/>
<circle cx="4.5" cy="265.642" r="4.5" fill="#F1FCF4"/>
<circle cx="555.5" cy="236.642" r="4.5" fill="#F1FCF4"/>
<circle cx="526.5" cy="236.642" r="4.5" fill="#F1FCF4"/>
<circle cx="497.5" cy="236.642" r="4.5" fill="#F1FCF4"/>
<circle cx="468.5" cy="236.642" r="4.5" fill="#F1FCF4"/>
<circle cx="439.5" cy="236.642" r="4.5" fill="#82CB96"/>
<circle cx="410.5" cy="236.642" r="4.5" fill="#F1FCF4"/>
<circle cx="381.5" cy="236.642" r="4.5" fill="#F1FCF4"/>
<circle cx="352.5" cy="236.642" r="4.5" fill="#F1FCF4"/>
<circle cx="323.5" cy="236.642" r="4.5" fill="#F1FCF4"/>
<circle cx="294.5" cy="236.642" r="4.5" fill="#F1FCF4"/>
<circle cx="265.5" cy="236.642" r="4.5" fill="#F1FCF4"/>
<circle cx="236.5" cy="236.642" r="4.5" fill="#F1FCF4"/>
<circle cx="207.5" cy="236.642" r="4.5" fill="#F1FCF4"/>
<circle cx="178.5" cy="236.642" r="4.5" fill="#F1FCF4"/>
<circle cx="149.5" cy="236.642" r="4.5" fill="#F1FCF4"/>
<circle cx="120.5" cy="236.642" r="4.5" fill="#F1FCF4"/>
<circle cx="91.5" cy="236.642" r="4.5" fill="#F1FCF4"/>
<circle cx="62.5" cy="236.642" r="4.5" fill="#F1FCF4"/>
<circle cx="33.5" cy="236.642" r="4.5" fill="#F1FCF4"/>
<circle cx="4.5" cy="236.642" r="4.5" fill="#F1FCF4"/>
<circle cx="555.5" cy="207.642" r="4.5" fill="#F1FCF4"/>
<circle cx="526.5" cy="207.642" r="4.5" fill="#F1FCF4"/>
<circle cx="497.5" cy="207.642" r="4.5" fill="#F1FCF4"/>
<circle cx="468.5" cy="207.642" r="4.5" fill="#F1FCF4"/>
<circle cx="439.5" cy="207.642" r="4.5" fill="#F1FCF4"/>
<circle cx="410.5" cy="207.642" r="4.5" fill="#F1FCF4"/>
<circle cx="381.5" cy="207.642" r="4.5" fill="#F1FCF4"/>
<circle cx="352.5" cy="207.642" r="4.5" fill="#F1FCF4"/>
<circle cx="323.5" cy="207.642" r="4.5" fill="#F1FCF4"/>
<circle cx="294.5" cy="207.642" r="4.5" fill="#F1FCF4"/>
<circle cx="265.5" cy="207.642" r="4.5" fill="#F1FCF4"/>
<circle cx="236.5" cy="207.642" r="4.5" fill="#F1FCF4"/>
<circle cx="207.5" cy="207.642" r="4.5" fill="#82CB96"/>
<circle cx="178.5" cy="207.642" r="4.5" fill="#F1FCF4"/>
<circle cx="149.5" cy="207.642" r="4.5" fill="#F1FCF4"/>
<circle cx="120.5" cy="207.642" r="4.5" fill="#F1FCF4"/>
<circle cx="91.5" cy="207.642" r="4.5" fill="#F1FCF4"/>
<circle cx="62.5" cy="207.642" r="4.5" fill="#F1FCF4"/>
<circle cx="33.5" cy="207.642" r="4.5" fill="#F1FCF4"/>
<circle cx="4.5" cy="207.642" r="4.5" fill="#F1FCF4"/>
<circle cx="555.5" cy="178.642" r="4.5" fill="#F1FCF4"/>
<circle cx="526.5" cy="178.642" r="4.5" fill="#F1FCF4"/>
<circle cx="497.5" cy="178.642" r="4.5" fill="#F1FCF4"/>
<circle cx="468.5" cy="178.642" r="4.5" fill="#F1FCF4"/>
<circle cx="439.5" cy="178.642" r="4.5" fill="#F1FCF4"/>
<circle cx="410.5" cy="178.642" r="4.5" fill="#F1FCF4"/>
<circle cx="381.5" cy="178.642" r="4.5" fill="#F1FCF4"/>
<circle cx="352.5" cy="178.642" r="4.5" fill="#F1FCF4"/>
<circle cx="323.5" cy="178.642" r="4.5" fill="#F1FCF4"/>
<circle cx="294.5" cy="178.642" r="4.5" fill="#F1FCF4"/>
<circle cx="265.5" cy="178.642" r="4.5" fill="#F1FCF4"/>
<circle cx="236.5" cy="178.642" r="4.5" fill="#F1FCF4"/>
<circle cx="207.5" cy="178.642" r="4.5" fill="#F1FCF4"/>
<circle cx="178.5" cy="178.642" r="4.5" fill="#F1FCF4"/>
<circle cx="149.5" cy="178.642" r="4.5" fill="#F1FCF4"/>
<circle cx="120.5" cy="178.642" r="4.5" fill="#F1FCF4"/>
<circle cx="91.5" cy="178.642" r="4.5" fill="#F1FCF4"/>
<circle cx="62.5" cy="178.642" r="4.5" fill="#F1FCF4"/>
<circle cx="33.5" cy="178.642" r="4.5" fill="#F1FCF4"/>
<circle cx="4.5" cy="178.642" r="4.5" fill="#F1FCF4"/>
<circle cx="555.5" cy="149.642" r="4.5" fill="#F1FCF4"/>
<circle cx="526.5" cy="149.642" r="4.5" fill="#F1FCF4"/>
<circle cx="497.5" cy="149.642" r="4.5" fill="#F1FCF4"/>
<circle cx="468.5" cy="149.642" r="4.5" fill="#F1FCF4"/>
<circle cx="439.5" cy="149.642" r="4.5" fill="#F1FCF4"/>
<circle cx="410.5" cy="149.642" r="4.5" fill="#F1FCF4"/>
<circle cx="381.5" cy="149.642" r="4.5" fill="#F1FCF4"/>
<circle cx="352.5" cy="149.642" r="4.5" fill="#82CB96"/>
<circle cx="323.5" cy="149.642" r="4.5" fill="#F1FCF4"/>
<circle cx="294.5" cy="149.642" r="4.5" fill="#F1FCF4"/>
<circle cx="265.5" cy="149.642" r="4.5" fill="#F1FCF4"/>
<circle cx="236.5" cy="149.642" r="4.5" fill="#F1FCF4"/>
<circle cx="207.5" cy="149.642" r="4.5" fill="#F1FCF4"/>
<circle cx="178.5" cy="149.642" r="4.5" fill="#F1FCF4"/>
<circle cx="149.5" cy="149.642" r="4.5" fill="#F1FCF4"/>
<circle cx="120.5" cy="149.642" r="4.5" fill="#F1FCF4"/>
<circle cx="91.5" cy="149.642" r="4.5" fill="#F1FCF4"/>
<circle cx="62.5" cy="149.642" r="4.5" fill="#F1FCF4"/>
<circle cx="33.5" cy="149.642" r="4.5" fill="#F1FCF4"/>
<circle cx="4.5" cy="149.642" r="4.5" fill="#F1FCF4"/>
<circle cx="555.5" cy="120.642" r="4.5" fill="#F1FCF4"/>
<circle cx="526.5" cy="120.642" r="4.5" fill="#F1FCF4"/>
<circle cx="497.5" cy="120.642" r="4.5" fill="#F1FCF4"/>
<circle cx="468.5" cy="120.642" r="4.5" fill="#F1FCF4"/>
<circle cx="439.5" cy="120.642" r="4.5" fill="#F1FCF4"/>
<circle cx="410.5" cy="120.642" r="4.5" fill="#F1FCF4"/>
<circle cx="381.5" cy="120.642" r="4.5" fill="#F1FCF4"/>
<circle cx="352.5" cy="120.642" r="4.5" fill="#F1FCF4"/>
<circle cx="323.5" cy="120.642" r="4.5" fill="#F1FCF4"/>
<circle cx="294.5" cy="120.642" r="4.5" fill="#F1FCF4"/>
<circle cx="265.5" cy="120.642" r="4.5" fill="#F1FCF4"/>
<circle cx="236.5" cy="120.642" r="4.5" fill="#F1FCF4"/>
<circle cx="207.5" cy="120.642" r="4.5" fill="#F1FCF4"/>
<circle cx="178.5" cy="120.642" r="4.5" fill="#F1FCF4"/>
<circle cx="149.5" cy="120.642" r="4.5" fill="#F1FCF4"/>
<circle cx="120.5" cy="120.642" r="4.5" fill="#F1FCF4"/>
<circle cx="91.5" cy="120.642" r="4.5" fill="#F1FCF4"/>
<circle cx="62.5" cy="120.642" r="4.5" fill="#F1FCF4"/>
<circle cx="33.5" cy="120.642" r="4.5" fill="#F1FCF4"/>
<circle cx="4.5" cy="120.642" r="4.5" fill="#F1FCF4"/>
<circle cx="555.5" cy="91.6421" r="4.5" fill="#F1FCF4"/>
<circle cx="526.5" cy="91.6421" r="4.5" fill="#F1FCF4"/>
<circle cx="497.5" cy="91.6421" r="4.5" fill="#F1FCF4"/>
<circle cx="468.5" cy="91.6421" r="4.5" fill="#F1FCF4"/>
<circle cx="439.5" cy="91.6421" r="4.5" fill="#F1FCF4"/>
<circle cx="410.5" cy="91.6421" r="4.5" fill="#F1FCF4"/>
<circle cx="381.5" cy="91.6421" r="4.5" fill="#F1FCF4"/>
<circle cx="352.5" cy="91.6421" r="4.5" fill="#F1FCF4"/>
<circle cx="323.5" cy="91.6421" r="4.5" fill="#F1FCF4"/>
<circle cx="294.5" cy="91.6421" r="4.5" fill="#F1FCF4"/>
<circle cx="265.5" cy="91.6421" r="4.5" fill="#F1FCF4"/>
<circle cx="236.5" cy="91.6421" r="4.5" fill="#F1FCF4"/>
<circle cx="207.5" cy="91.6421" r="4.5" fill="#F1FCF4"/>
<circle cx="178.5" cy="91.6421" r="4.5" fill="#F1FCF4"/>
<circle cx="149.5" cy="91.6421" r="4.5" fill="#F1FCF4"/>
<circle cx="120.5" cy="91.6421" r="4.5" fill="#F1FCF4"/>
<circle cx="91.5" cy="91.6421" r="4.5" fill="#F1FCF4"/>
<circle cx="62.5" cy="91.6421" r="4.5" fill="#F1FCF4"/>
<circle cx="33.5" cy="91.6421" r="4.5" fill="#F1FCF4"/>
<circle cx="4.5" cy="91.6421" r="4.5" fill="#82CB96"/>
<circle cx="555.5" cy="62.6421" r="4.5" fill="#F1FCF4"/>
<circle cx="526.5" cy="62.6421" r="4.5" fill="#F1FCF4"/>
<circle cx="497.5" cy="62.6421" r="4.5" fill="#F1FCF4"/>
<circle cx="468.5" cy="62.6421" r="4.5" fill="#F1FCF4"/>
<circle cx="439.5" cy="62.6421" r="4.5" fill="#F1FCF4"/>
<circle cx="410.5" cy="62.6421" r="4.5" fill="#F1FCF4"/>
<circle cx="381.5" cy="62.6421" r="4.5" fill="#F1FCF4"/>
<circle cx="352.5" cy="62.6421" r="4.5" fill="#F1FCF4"/>
<circle cx="323.5" cy="62.6421" r="4.5" fill="#F1FCF4"/>
<circle cx="294.5" cy="62.6421" r="4.5" fill="#F1FCF4"/>
<circle cx="265.5" cy="62.6421" r="4.5" fill="#F1FCF4"/>
<circle cx="236.5" cy="62.6421" r="4.5" fill="#82CB96"/>
<circle cx="207.5" cy="62.6421" r="4.5" fill="#F1FCF4"/>
<circle cx="178.5" cy="62.6421" r="4.5" fill="#F1FCF4"/>
<circle cx="149.5" cy="62.6421" r="4.5" fill="#F1FCF4"/>
<circle cx="120.5" cy="62.6421" r="4.5" fill="#F1FCF4"/>
<circle cx="91.5" cy="62.6421" r="4.5" fill="#F1FCF4"/>
<circle cx="62.5" cy="62.6421" r="4.5" fill="#F1FCF4"/>
<circle cx="33.5" cy="62.6421" r="4.5" fill="#F1FCF4"/>
<circle cx="4.5" cy="62.6421" r="4.5" fill="#F1FCF4"/>
<circle cx="555.5" cy="33.6421" r="4.5" fill="#F1FCF4"/>
<circle cx="526.5" cy="33.6421" r="4.5" fill="#F1FCF4"/>
<circle cx="497.5" cy="33.6421" r="4.5" fill="#F1FCF4"/>
<circle cx="468.5" cy="33.6421" r="4.5" fill="#F1FCF4"/>
<circle cx="439.5" cy="33.6421" r="4.5" fill="#F1FCF4"/>
<circle cx="410.5" cy="33.6421" r="4.5" fill="#F1FCF4"/>
<circle cx="381.5" cy="33.6421" r="4.5" fill="#F1FCF4"/>
<circle cx="352.5" cy="33.6421" r="4.5" fill="#F1FCF4"/>
<circle cx="323.5" cy="33.6421" r="4.5" fill="#F1FCF4"/>
<circle cx="294.5" cy="33.6421" r="4.5" fill="#F1FCF4"/>
<circle cx="265.5" cy="33.6421" r="4.5" fill="#F1FCF4"/>
<circle cx="236.5" cy="33.6421" r="4.5" fill="#F1FCF4"/>
<circle cx="207.5" cy="33.6421" r="4.5" fill="#F1FCF4"/>
<circle cx="178.5" cy="33.6421" r="4.5" fill="#F1FCF4"/>
<circle cx="149.5" cy="33.6421" r="4.5" fill="#F1FCF4"/>
<circle cx="120.5" cy="33.6421" r="4.5" fill="#FF9DAE"/>
<circle cx="91.5" cy="33.6421" r="4.5" fill="#F1FCF4"/>
<circle cx="62.5" cy="33.6421" r="4.5" fill="#F1FCF4"/>
<circle cx="33.5" cy="33.6421" r="4.5" fill="#F1FCF4"/>
<circle cx="4.5" cy="33.6421" r="4.5" fill="#F1FCF4"/>
<circle cx="555.5" cy="4.64209" r="4.5" fill="#F1FCF4"/>
<circle cx="526.5" cy="4.64209" r="4.5" fill="#F1FCF4"/>
<circle cx="497.5" cy="4.64209" r="4.5" fill="#F1FCF4"/>
<circle cx="468.5" cy="4.64209" r="4.5" fill="#F1FCF4"/>
<circle cx="439.5" cy="4.64209" r="4.5" fill="#F1FCF4"/>
<circle cx="410.5" cy="4.64209" r="4.5" fill="#F1FCF4"/>
<circle cx="381.5" cy="4.64209" r="4.5" fill="#F1FCF4"/>
<circle cx="352.5" cy="4.64209" r="4.5" fill="#F1FCF4"/>
<circle cx="323.5" cy="4.64209" r="4.5" fill="#F1FCF4"/>
<circle cx="294.5" cy="4.64209" r="4.5" fill="#F1FCF4"/>
<circle cx="265.5" cy="4.64209" r="4.5" fill="#F1FCF4"/>
<circle cx="236.5" cy="4.64209" r="4.5" fill="#F1FCF4"/>
<circle cx="207.5" cy="4.64209" r="4.5" fill="#F1FCF4"/>
<circle cx="178.5" cy="4.64209" r="4.5" fill="#F1FCF4"/>
<circle cx="149.5" cy="4.64209" r="4.5" fill="#F1FCF4"/>
<circle cx="120.5" cy="4.64209" r="4.5" fill="#F1FCF4"/>
<circle cx="91.5" cy="4.64209" r="4.5" fill="#F1FCF4"/>
<circle cx="62.5" cy="4.64209" r="4.5" fill="#F1FCF4"/>
<circle cx="33.5" cy="4.64209" r="4.5" fill="#F1FCF4"/>
<circle cx="4.5" cy="4.64209" r="4.5" fill="#F1FCF4"/>
</svg>
