<svg width="270" height="561" viewBox="0 0 270 561" fill="none" xmlns="http://www.w3.org/2000/svg">
<circle cx="4.5" cy="555.642" r="4.5" transform="rotate(90 4.5 555.642)" fill="#F1FCF4"/>
<circle cx="4.5" cy="526.642" r="4.5" transform="rotate(90 4.5 526.642)" fill="#F1FCF4"/>
<circle cx="4.5" cy="497.642" r="4.5" transform="rotate(90 4.5 497.642)" fill="#F1FCF4"/>
<circle cx="4.5" cy="468.642" r="4.5" transform="rotate(90 4.5 468.642)" fill="#F1FCF4"/>
<circle cx="4.5" cy="439.642" r="4.5" transform="rotate(90 4.5 439.642)" fill="#F1FCF4"/>
<circle cx="4.5" cy="410.642" r="4.5" transform="rotate(90 4.5 410.642)" fill="#F1FCF4"/>
<circle cx="4.5" cy="381.642" r="4.5" transform="rotate(90 4.5 381.642)" fill="#F1FCF4"/>
<circle cx="4.5" cy="352.642" r="4.5" transform="rotate(90 4.5 352.642)" fill="#F1FCF4"/>
<circle cx="4.5" cy="323.642" r="4.5" transform="rotate(90 4.5 323.642)" fill="#F1FCF4"/>
<circle cx="4.5" cy="294.642" r="4.5" transform="rotate(90 4.5 294.642)" fill="#F1FCF4"/>
<circle cx="4.5" cy="265.642" r="4.5" transform="rotate(90 4.5 265.642)" fill="#F1FCF4"/>
<circle cx="4.5" cy="236.642" r="4.5" transform="rotate(90 4.5 236.642)" fill="#F1FCF4"/>
<circle cx="4.5" cy="207.642" r="4.5" transform="rotate(90 4.5 207.642)" fill="#F1FCF4"/>
<circle cx="4.5" cy="178.642" r="4.5" transform="rotate(90 4.5 178.642)" fill="#F1FCF4"/>
<circle cx="4.5" cy="149.642" r="4.5" transform="rotate(90 4.5 149.642)" fill="#F1FCF4"/>
<circle cx="4.5" cy="120.642" r="4.5" transform="rotate(90 4.5 120.642)" fill="#F1FCF4"/>
<circle cx="4.5" cy="91.6421" r="4.5" transform="rotate(90 4.5 91.6421)" fill="#6A87E1"/>
<circle cx="4.5" cy="62.6421" r="4.5" transform="rotate(90 4.5 62.6421)" fill="#F1FCF4"/>
<circle cx="4.5" cy="33.6421" r="4.5" transform="rotate(90 4.5 33.6421)" fill="#F1FCF4"/>
<circle cx="4.5" cy="4.64209" r="4.5" transform="rotate(90 4.5 4.64209)" fill="#F1FCF4"/>
<circle cx="33.5" cy="555.642" r="4.5" transform="rotate(90 33.5 555.642)" fill="#F1FCF4"/>
<circle cx="33.5" cy="526.642" r="4.5" transform="rotate(90 33.5 526.642)" fill="#F1FCF4"/>
<circle cx="33.5" cy="497.642" r="4.5" transform="rotate(90 33.5 497.642)" fill="#F1FCF4"/>
<circle cx="33.5" cy="468.642" r="4.5" transform="rotate(90 33.5 468.642)" fill="#F1FCF4"/>
<circle cx="33.5" cy="439.642" r="4.5" transform="rotate(90 33.5 439.642)" fill="#82CB96"/>
<circle cx="33.5" cy="410.642" r="4.5" transform="rotate(90 33.5 410.642)" fill="#F1FCF4"/>
<circle cx="33.5" cy="381.642" r="4.5" transform="rotate(90 33.5 381.642)" fill="#F1FCF4"/>
<circle cx="33.5" cy="352.642" r="4.5" transform="rotate(90 33.5 352.642)" fill="#F1FCF4"/>
<circle cx="33.5" cy="323.642" r="4.5" transform="rotate(90 33.5 323.642)" fill="#F1FCF4"/>
<circle cx="33.5" cy="294.642" r="4.5" transform="rotate(90 33.5 294.642)" fill="#F1FCF4"/>
<circle cx="33.5" cy="265.642" r="4.5" transform="rotate(90 33.5 265.642)" fill="#F1FCF4"/>
<circle cx="33.5" cy="236.642" r="4.5" transform="rotate(90 33.5 236.642)" fill="#F1FCF4"/>
<circle cx="33.5" cy="207.642" r="4.5" transform="rotate(90 33.5 207.642)" fill="#F1FCF4"/>
<circle cx="33.5" cy="178.642" r="4.5" transform="rotate(90 33.5 178.642)" fill="#F1FCF4"/>
<circle cx="33.5" cy="149.642" r="4.5" transform="rotate(90 33.5 149.642)" fill="#F1FCF4"/>
<circle cx="33.5" cy="120.642" r="4.5" transform="rotate(90 33.5 120.642)" fill="#F1FCF4"/>
<circle cx="33.5" cy="91.6421" r="4.5" transform="rotate(90 33.5 91.6421)" fill="#F1FCF4"/>
<circle cx="33.5" cy="62.6421" r="4.5" transform="rotate(90 33.5 62.6421)" fill="#F1FCF4"/>
<circle cx="33.5" cy="33.6421" r="4.5" transform="rotate(90 33.5 33.6421)" fill="#F1FCF4"/>
<circle cx="33.5" cy="4.64209" r="4.5" transform="rotate(90 33.5 4.64209)" fill="#F1FCF4"/>
<circle cx="62.5" cy="555.642" r="4.5" transform="rotate(90 62.5 555.642)" fill="#F1FCF4"/>
<circle cx="62.5" cy="526.642" r="4.5" transform="rotate(90 62.5 526.642)" fill="#F1FCF4"/>
<circle cx="62.5" cy="497.642" r="4.5" transform="rotate(90 62.5 497.642)" fill="#F1FCF4"/>
<circle cx="62.5" cy="468.642" r="4.5" transform="rotate(90 62.5 468.642)" fill="#F1FCF4"/>
<circle cx="62.5" cy="439.642" r="4.5" transform="rotate(90 62.5 439.642)" fill="#F1FCF4"/>
<circle cx="62.5" cy="410.642" r="4.5" transform="rotate(90 62.5 410.642)" fill="#F1FCF4"/>
<circle cx="62.5" cy="381.642" r="4.5" transform="rotate(90 62.5 381.642)" fill="#F1FCF4"/>
<circle cx="62.5" cy="352.642" r="4.5" transform="rotate(90 62.5 352.642)" fill="#F1FCF4"/>
<circle cx="62.5" cy="323.642" r="4.5" transform="rotate(90 62.5 323.642)" fill="#F1FCF4"/>
<circle cx="62.5" cy="294.642" r="4.5" transform="rotate(90 62.5 294.642)" fill="#F1FCF4"/>
<circle cx="62.5" cy="265.642" r="4.5" transform="rotate(90 62.5 265.642)" fill="#F1FCF4"/>
<circle cx="62.5" cy="236.642" r="4.5" transform="rotate(90 62.5 236.642)" fill="#F1FCF4"/>
<circle cx="62.5" cy="207.642" r="4.5" transform="rotate(90 62.5 207.642)" fill="#FF9DAE"/>
<circle cx="62.5" cy="178.642" r="4.5" transform="rotate(90 62.5 178.642)" fill="#F1FCF4"/>
<circle cx="62.5" cy="149.642" r="4.5" transform="rotate(90 62.5 149.642)" fill="#F1FCF4"/>
<circle cx="62.5" cy="120.642" r="4.5" transform="rotate(90 62.5 120.642)" fill="#F1FCF4"/>
<circle cx="62.5" cy="91.6421" r="4.5" transform="rotate(90 62.5 91.6421)" fill="#F1FCF4"/>
<circle cx="62.5" cy="62.6421" r="4.5" transform="rotate(90 62.5 62.6421)" fill="#F1FCF4"/>
<circle cx="62.5" cy="33.6421" r="4.5" transform="rotate(90 62.5 33.6421)" fill="#F1FCF4"/>
<circle cx="62.5" cy="4.64209" r="4.5" transform="rotate(90 62.5 4.64209)" fill="#F1FCF4"/>
<circle cx="91.5" cy="555.642" r="4.5" transform="rotate(90 91.5 555.642)" fill="#F1FCF4"/>
<circle cx="91.5" cy="526.642" r="4.5" transform="rotate(90 91.5 526.642)" fill="#F1FCF4"/>
<circle cx="91.5" cy="497.642" r="4.5" transform="rotate(90 91.5 497.642)" fill="#F1FCF4"/>
<circle cx="91.5" cy="468.642" r="4.5" transform="rotate(90 91.5 468.642)" fill="#F1FCF4"/>
<circle cx="91.5" cy="439.642" r="4.5" transform="rotate(90 91.5 439.642)" fill="#F1FCF4"/>
<circle cx="91.5" cy="410.642" r="4.5" transform="rotate(90 91.5 410.642)" fill="#F1FCF4"/>
<circle cx="91.5" cy="381.642" r="4.5" transform="rotate(90 91.5 381.642)" fill="#F1FCF4"/>
<circle cx="91.5" cy="352.642" r="4.5" transform="rotate(90 91.5 352.642)" fill="#F1FCF4"/>
<circle cx="91.5" cy="323.642" r="4.5" transform="rotate(90 91.5 323.642)" fill="#F1FCF4"/>
<circle cx="91.5" cy="294.642" r="4.5" transform="rotate(90 91.5 294.642)" fill="#F1FCF4"/>
<circle cx="91.5" cy="265.642" r="4.5" transform="rotate(90 91.5 265.642)" fill="#F1FCF4"/>
<circle cx="91.5" cy="236.642" r="4.5" transform="rotate(90 91.5 236.642)" fill="#F1FCF4"/>
<circle cx="91.5" cy="207.642" r="4.5" transform="rotate(90 91.5 207.642)" fill="#F1FCF4"/>
<circle cx="91.5" cy="178.642" r="4.5" transform="rotate(90 91.5 178.642)" fill="#F1FCF4"/>
<circle cx="91.5" cy="149.642" r="4.5" transform="rotate(90 91.5 149.642)" fill="#F1FCF4"/>
<circle cx="91.5" cy="120.642" r="4.5" transform="rotate(90 91.5 120.642)" fill="#F1FCF4"/>
<circle cx="91.5" cy="91.6421" r="4.5" transform="rotate(90 91.5 91.6421)" fill="#F1FCF4"/>
<circle cx="91.5" cy="62.6421" r="4.5" transform="rotate(90 91.5 62.6421)" fill="#F1FCF4"/>
<circle cx="91.5" cy="33.6421" r="4.5" transform="rotate(90 91.5 33.6421)" fill="#F1FCF4"/>
<circle cx="91.5" cy="4.64211" r="4.5" transform="rotate(90 91.5 4.64211)" fill="#F1FCF4"/>
<circle cx="120.5" cy="555.642" r="4.5" transform="rotate(90 120.5 555.642)" fill="#F1FCF4"/>
<circle cx="120.5" cy="526.642" r="4.5" transform="rotate(90 120.5 526.642)" fill="#F1FCF4"/>
<circle cx="120.5" cy="497.642" r="4.5" transform="rotate(90 120.5 497.642)" fill="#F1FCF4"/>
<circle cx="120.5" cy="468.642" r="4.5" transform="rotate(90 120.5 468.642)" fill="#F1FCF4"/>
<circle cx="120.5" cy="439.642" r="4.5" transform="rotate(90 120.5 439.642)" fill="#F1FCF4"/>
<circle cx="120.5" cy="410.642" r="4.5" transform="rotate(90 120.5 410.642)" fill="#F1FCF4"/>
<circle cx="120.5" cy="381.642" r="4.5" transform="rotate(90 120.5 381.642)" fill="#F1FCF4"/>
<circle cx="120.5" cy="352.642" r="4.5" transform="rotate(90 120.5 352.642)" fill="#82CB96"/>
<circle cx="120.5" cy="323.642" r="4.5" transform="rotate(90 120.5 323.642)" fill="#F1FCF4"/>
<circle cx="120.5" cy="294.642" r="4.5" transform="rotate(90 120.5 294.642)" fill="#F1FCF4"/>
<circle cx="120.5" cy="265.642" r="4.5" transform="rotate(90 120.5 265.642)" fill="#F1FCF4"/>
<circle cx="120.5" cy="236.642" r="4.5" transform="rotate(90 120.5 236.642)" fill="#F1FCF4"/>
<circle cx="120.5" cy="207.642" r="4.5" transform="rotate(90 120.5 207.642)" fill="#F1FCF4"/>
<circle cx="120.5" cy="178.642" r="4.5" transform="rotate(90 120.5 178.642)" fill="#F1FCF4"/>
<circle cx="120.5" cy="149.642" r="4.5" transform="rotate(90 120.5 149.642)" fill="#F1FCF4"/>
<circle cx="120.5" cy="120.642" r="4.5" transform="rotate(90 120.5 120.642)" fill="#F1FCF4"/>
<circle cx="120.5" cy="91.6421" r="4.5" transform="rotate(90 120.5 91.6421)" fill="#F1FCF4"/>
<circle cx="120.5" cy="62.6421" r="4.5" transform="rotate(90 120.5 62.6421)" fill="#F1FCF4"/>
<circle cx="120.5" cy="33.6421" r="4.5" transform="rotate(90 120.5 33.6421)" fill="#F1FCF4"/>
<circle cx="120.5" cy="4.64211" r="4.5" transform="rotate(90 120.5 4.64211)" fill="#F1FCF4"/>
<circle cx="149.5" cy="555.642" r="4.5" transform="rotate(90 149.5 555.642)" fill="#F1FCF4"/>
<circle cx="149.5" cy="526.642" r="4.5" transform="rotate(90 149.5 526.642)" fill="#F1FCF4"/>
<circle cx="149.5" cy="497.642" r="4.5" transform="rotate(90 149.5 497.642)" fill="#F1FCF4"/>
<circle cx="149.5" cy="468.642" r="4.5" transform="rotate(90 149.5 468.642)" fill="#F1FCF4"/>
<circle cx="149.5" cy="439.642" r="4.5" transform="rotate(90 149.5 439.642)" fill="#F1FCF4"/>
<circle cx="149.5" cy="410.642" r="4.5" transform="rotate(90 149.5 410.642)" fill="#F1FCF4"/>
<circle cx="149.5" cy="381.642" r="4.5" transform="rotate(90 149.5 381.642)" fill="#F1FCF4"/>
<circle cx="149.5" cy="352.642" r="4.5" transform="rotate(90 149.5 352.642)" fill="#F1FCF4"/>
<circle cx="149.5" cy="323.642" r="4.5" transform="rotate(90 149.5 323.642)" fill="#F1FCF4"/>
<circle cx="149.5" cy="294.642" r="4.5" transform="rotate(90 149.5 294.642)" fill="#F1FCF4"/>
<circle cx="149.5" cy="265.642" r="4.5" transform="rotate(90 149.5 265.642)" fill="#F1FCF4"/>
<circle cx="149.5" cy="236.642" r="4.5" transform="rotate(90 149.5 236.642)" fill="#F1FCF4"/>
<circle cx="149.5" cy="207.642" r="4.5" transform="rotate(90 149.5 207.642)" fill="#F1FCF4"/>
<circle cx="149.5" cy="178.642" r="4.5" transform="rotate(90 149.5 178.642)" fill="#F1FCF4"/>
<circle cx="149.5" cy="149.642" r="4.5" transform="rotate(90 149.5 149.642)" fill="#F1FCF4"/>
<circle cx="149.5" cy="120.642" r="4.5" transform="rotate(90 149.5 120.642)" fill="#F1FCF4"/>
<circle cx="149.5" cy="91.6421" r="4.5" transform="rotate(90 149.5 91.6421)" fill="#F1FCF4"/>
<circle cx="149.5" cy="62.6421" r="4.5" transform="rotate(90 149.5 62.6421)" fill="#F1FCF4"/>
<circle cx="149.5" cy="33.6421" r="4.5" transform="rotate(90 149.5 33.6421)" fill="#F1FCF4"/>
<circle cx="149.5" cy="4.64211" r="4.5" transform="rotate(90 149.5 4.64211)" fill="#F1FCF4"/>
<circle cx="178.5" cy="555.642" r="4.5" transform="rotate(90 178.5 555.642)" fill="#F1FCF4"/>
<circle cx="178.5" cy="526.642" r="4.5" transform="rotate(90 178.5 526.642)" fill="#F1FCF4"/>
<circle cx="178.5" cy="497.642" r="4.5" transform="rotate(90 178.5 497.642)" fill="#F1FCF4"/>
<circle cx="178.5" cy="468.642" r="4.5" transform="rotate(90 178.5 468.642)" fill="#F1FCF4"/>
<circle cx="178.5" cy="439.642" r="4.5" transform="rotate(90 178.5 439.642)" fill="#F1FCF4"/>
<circle cx="178.5" cy="410.642" r="4.5" transform="rotate(90 178.5 410.642)" fill="#F1FCF4"/>
<circle cx="178.5" cy="381.642" r="4.5" transform="rotate(90 178.5 381.642)" fill="#F1FCF4"/>
<circle cx="178.5" cy="352.642" r="4.5" transform="rotate(90 178.5 352.642)" fill="#F1FCF4"/>
<circle cx="178.5" cy="323.642" r="4.5" transform="rotate(90 178.5 323.642)" fill="#F1FCF4"/>
<circle cx="178.5" cy="294.642" r="4.5" transform="rotate(90 178.5 294.642)" fill="#F1FCF4"/>
<circle cx="178.5" cy="265.642" r="4.5" transform="rotate(90 178.5 265.642)" fill="#F1FCF4"/>
<circle cx="178.5" cy="236.642" r="4.5" transform="rotate(90 178.5 236.642)" fill="#F1FCF4"/>
<circle cx="178.5" cy="207.642" r="4.5" transform="rotate(90 178.5 207.642)" fill="#F1FCF4"/>
<circle cx="178.5" cy="178.642" r="4.5" transform="rotate(90 178.5 178.642)" fill="#F1FCF4"/>
<circle cx="178.5" cy="149.642" r="4.5" transform="rotate(90 178.5 149.642)" fill="#F1FCF4"/>
<circle cx="178.5" cy="120.642" r="4.5" transform="rotate(90 178.5 120.642)" fill="#F1FCF4"/>
<circle cx="178.5" cy="91.6421" r="4.5" transform="rotate(90 178.5 91.6421)" fill="#F1FCF4"/>
<circle cx="178.5" cy="62.6421" r="4.5" transform="rotate(90 178.5 62.6421)" fill="#F1FCF4"/>
<circle cx="178.5" cy="33.6421" r="4.5" transform="rotate(90 178.5 33.6421)" fill="#F1FCF4"/>
<circle cx="178.5" cy="4.64211" r="4.5" transform="rotate(90 178.5 4.64211)" fill="#82CB96"/>
<circle cx="207.5" cy="555.642" r="4.5" transform="rotate(90 207.5 555.642)" fill="#F1FCF4"/>
<circle cx="207.5" cy="526.642" r="4.5" transform="rotate(90 207.5 526.642)" fill="#F1FCF4"/>
<circle cx="207.5" cy="497.642" r="4.5" transform="rotate(90 207.5 497.642)" fill="#F1FCF4"/>
<circle cx="207.5" cy="468.642" r="4.5" transform="rotate(90 207.5 468.642)" fill="#F1FCF4"/>
<circle cx="207.5" cy="439.642" r="4.5" transform="rotate(90 207.5 439.642)" fill="#F1FCF4"/>
<circle cx="207.5" cy="410.642" r="4.5" transform="rotate(90 207.5 410.642)" fill="#F1FCF4"/>
<circle cx="207.5" cy="381.642" r="4.5" transform="rotate(90 207.5 381.642)" fill="#F1FCF4"/>
<circle cx="207.5" cy="352.642" r="4.5" transform="rotate(90 207.5 352.642)" fill="#F1FCF4"/>
<circle cx="207.5" cy="323.642" r="4.5" transform="rotate(90 207.5 323.642)" fill="#F1FCF4"/>
<circle cx="207.5" cy="294.642" r="4.5" transform="rotate(90 207.5 294.642)" fill="#F1FCF4"/>
<circle cx="207.5" cy="265.642" r="4.5" transform="rotate(90 207.5 265.642)" fill="#F1FCF4"/>
<circle cx="207.5" cy="236.642" r="4.5" transform="rotate(90 207.5 236.642)" fill="#FF9DAE"/>
<circle cx="207.5" cy="207.642" r="4.5" transform="rotate(90 207.5 207.642)" fill="#F1FCF4"/>
<circle cx="207.5" cy="178.642" r="4.5" transform="rotate(90 207.5 178.642)" fill="#F1FCF4"/>
<circle cx="207.5" cy="149.642" r="4.5" transform="rotate(90 207.5 149.642)" fill="#F1FCF4"/>
<circle cx="207.5" cy="120.642" r="4.5" transform="rotate(90 207.5 120.642)" fill="#F1FCF4"/>
<circle cx="207.5" cy="91.6421" r="4.5" transform="rotate(90 207.5 91.6421)" fill="#F1FCF4"/>
<circle cx="207.5" cy="62.6421" r="4.5" transform="rotate(90 207.5 62.6421)" fill="#F1FCF4"/>
<circle cx="207.5" cy="33.6421" r="4.5" transform="rotate(90 207.5 33.6421)" fill="#F1FCF4"/>
<circle cx="207.5" cy="4.64211" r="4.5" transform="rotate(90 207.5 4.64211)" fill="#F1FCF4"/>
<circle cx="236.5" cy="555.642" r="4.5" transform="rotate(90 236.5 555.642)" fill="#F1FCF4"/>
<circle cx="236.5" cy="526.642" r="4.5" transform="rotate(90 236.5 526.642)" fill="#F1FCF4"/>
<circle cx="236.5" cy="497.642" r="4.5" transform="rotate(90 236.5 497.642)" fill="#6A87E1"/>
<circle cx="236.5" cy="468.642" r="4.5" transform="rotate(90 236.5 468.642)" fill="#F1FCF4"/>
<circle cx="236.5" cy="439.642" r="4.5" transform="rotate(90 236.5 439.642)" fill="#F1FCF4"/>
<circle cx="236.5" cy="410.642" r="4.5" transform="rotate(90 236.5 410.642)" fill="#F1FCF4"/>
<circle cx="236.5" cy="381.642" r="4.5" transform="rotate(90 236.5 381.642)" fill="#F1FCF4"/>
<circle cx="236.5" cy="352.642" r="4.5" transform="rotate(90 236.5 352.642)" fill="#F1FCF4"/>
<circle cx="236.5" cy="323.642" r="4.5" transform="rotate(90 236.5 323.642)" fill="#F1FCF4"/>
<circle cx="236.5" cy="294.642" r="4.5" transform="rotate(90 236.5 294.642)" fill="#F1FCF4"/>
<circle cx="236.5" cy="265.642" r="4.5" transform="rotate(90 236.5 265.642)" fill="#F1FCF4"/>
<circle cx="236.5" cy="236.642" r="4.5" transform="rotate(90 236.5 236.642)" fill="#F1FCF4"/>
<circle cx="236.5" cy="207.642" r="4.5" transform="rotate(90 236.5 207.642)" fill="#F1FCF4"/>
<circle cx="236.5" cy="178.642" r="4.5" transform="rotate(90 236.5 178.642)" fill="#F1FCF4"/>
<circle cx="236.5" cy="149.642" r="4.5" transform="rotate(90 236.5 149.642)" fill="#F1FCF4"/>
<circle cx="236.5" cy="120.642" r="4.5" transform="rotate(90 236.5 120.642)" fill="#82CB96"/>
<circle cx="236.5" cy="91.6421" r="4.5" transform="rotate(90 236.5 91.6421)" fill="#F1FCF4"/>
<circle cx="236.5" cy="62.6421" r="4.5" transform="rotate(90 236.5 62.6421)" fill="#F1FCF4"/>
<circle cx="236.5" cy="33.6421" r="4.5" transform="rotate(90 236.5 33.6421)" fill="#F1FCF4"/>
<circle cx="236.5" cy="4.64211" r="4.5" transform="rotate(90 236.5 4.64211)" fill="#F1FCF4"/>
<circle cx="265.5" cy="555.642" r="4.5" transform="rotate(90 265.5 555.642)" fill="#F1FCF4"/>
<circle cx="265.5" cy="526.642" r="4.5" transform="rotate(90 265.5 526.642)" fill="#F1FCF4"/>
<circle cx="265.5" cy="497.642" r="4.5" transform="rotate(90 265.5 497.642)" fill="#F1FCF4"/>
<circle cx="265.5" cy="468.642" r="4.5" transform="rotate(90 265.5 468.642)" fill="#F1FCF4"/>
<circle cx="265.5" cy="439.642" r="4.5" transform="rotate(90 265.5 439.642)" fill="#F1FCF4"/>
<circle cx="265.5" cy="410.642" r="4.5" transform="rotate(90 265.5 410.642)" fill="#F1FCF4"/>
<circle cx="265.5" cy="381.642" r="4.5" transform="rotate(90 265.5 381.642)" fill="#F1FCF4"/>
<circle cx="265.5" cy="352.642" r="4.5" transform="rotate(90 265.5 352.642)" fill="#F1FCF4"/>
<circle cx="265.5" cy="323.642" r="4.5" transform="rotate(90 265.5 323.642)" fill="#F1FCF4"/>
<circle cx="265.5" cy="294.642" r="4.5" transform="rotate(90 265.5 294.642)" fill="#F1FCF4"/>
<circle cx="265.5" cy="265.642" r="4.5" transform="rotate(90 265.5 265.642)" fill="#F1FCF4"/>
<circle cx="265.5" cy="236.642" r="4.5" transform="rotate(90 265.5 236.642)" fill="#F1FCF4"/>
<circle cx="265.5" cy="207.642" r="4.5" transform="rotate(90 265.5 207.642)" fill="#F1FCF4"/>
<circle cx="265.5" cy="178.642" r="4.5" transform="rotate(90 265.5 178.642)" fill="#F1FCF4"/>
<circle cx="265.5" cy="149.642" r="4.5" transform="rotate(90 265.5 149.642)" fill="#F1FCF4"/>
<circle cx="265.5" cy="120.642" r="4.5" transform="rotate(90 265.5 120.642)" fill="#F1FCF4"/>
<circle cx="265.5" cy="91.6421" r="4.5" transform="rotate(90 265.5 91.6421)" fill="#F1FCF4"/>
<circle cx="265.5" cy="62.6421" r="4.5" transform="rotate(90 265.5 62.6421)" fill="#F1FCF4"/>
<circle cx="265.5" cy="33.6421" r="4.5" transform="rotate(90 265.5 33.6421)" fill="#F1FCF4"/>
<circle cx="265.5" cy="4.64211" r="4.5" transform="rotate(90 265.5 4.64211)" fill="#F1FCF4"/>
</svg>
