<svg width="101" height="101" viewBox="0 0 101 101" fill="none" xmlns="http://www.w3.org/2000/svg">
<path fill-rule="evenodd" clip-rule="evenodd" d="M28.8417 31.6684C29.6346 30.4937 31.3641 30.4937 32.1571 31.6684L56.776 68.1392C57.6726 69.4675 56.7209 71.2581 55.1183 71.2581H43.7228V97C43.7228 98.1046 42.8273 99 41.7228 99H19.2769C18.1723 99 17.2769 98.1046 17.2769 97V71.2581H5.88132C4.27872 71.2581 3.32701 69.4675 4.22363 68.1392L28.8417 31.6684ZM55.1183 69.2581L30.4994 32.7874L5.88132 69.2581H19.2769V97H41.7228V69.2581H55.1183Z" fill="#218A3D"/>
<path fill-rule="evenodd" clip-rule="evenodd" d="M73.3434 1.66184C74.1367 0.490494 75.862 0.490487 76.6553 1.66182L99.7707 35.7929C100.67 37.1209 99.7188 38.9144 98.1148 38.9144H87.5309V63C87.5309 64.1046 86.6354 65 85.5309 65H64.4687C63.3641 65 62.4687 64.1046 62.4687 63V38.9144H51.8847C50.2807 38.9144 49.3293 37.121 50.2288 35.7929L73.3434 1.66184ZM98.1148 36.9144L74.9994 2.78333L51.8847 36.9144L64.4687 36.9144V63H85.5309V36.9144H98.1148Z" fill="#218A3D"/>
</svg>
