<svg width="92" height="78" viewBox="0 0 92 78" fill="none" xmlns="http://www.w3.org/2000/svg">
<path fill-rule="evenodd" clip-rule="evenodd" d="M45.4788 2.9003C45.1803 2.7375 44.8196 2.7375 44.5211 2.9003L2.86441 25.6221C2.16954 26.0011 2.16955 26.9989 2.86441 27.3779L44.521 50.0997C44.8195 50.2625 45.1803 50.2625 45.4788 50.0997L83.4999 29.357L83.4999 57.8334C83.4999 58.3856 83.9476 58.8334 84.4999 58.8334H88.8333C89.3856 58.8334 89.8333 58.3856 89.8333 57.8334L89.8333 27.0937L45.4788 2.9003ZM43.5634 1.14451C44.4588 0.656094 45.5411 0.656094 46.4365 1.14451L91.8333 25.9064L91.8333 57.8334C91.8333 59.4902 90.4901 60.8334 88.8333 60.8334H84.4999C82.8431 60.8334 81.4999 59.4902 81.4999 57.8334L81.4999 32.7264L46.4366 51.8554C45.5411 52.3439 44.4588 52.3439 43.5633 51.8555L1.9067 29.1337C-0.177892 27.9967 -0.17788 25.0034 1.90671 23.8663L43.5634 1.14451ZM72.2085 43.846C73.5413 43.1187 75.1666 44.0833 75.1666 45.6016V59.3964C75.1666 60.494 74.5672 61.504 73.6037 62.0298L46.437 76.855C45.5413 77.3438 44.4586 77.3438 43.5629 76.855L16.3962 62.0298C15.4327 61.504 14.8333 60.494 14.8333 59.3964L14.8333 45.6016C14.8333 44.0833 16.4586 43.1187 17.7913 43.846L44.9999 58.6941L72.2085 43.846ZM73.1666 45.6016L45.958 60.4497C45.3609 60.7756 44.639 60.7756 44.0419 60.4497L16.8333 45.6016L16.8333 59.3964C16.8333 59.7622 17.0331 60.0989 17.3542 60.2742L44.5209 75.0994C44.8195 75.2623 45.1804 75.2623 45.479 75.0994L72.6456 60.2742C72.9668 60.0989 73.1666 59.7622 73.1666 59.3964V45.6016Z" fill="#218A3D"/>
</svg>
