<svg width="86" height="86" viewBox="0 0 86 86" fill="none" xmlns="http://www.w3.org/2000/svg">
<path fill-rule="evenodd" clip-rule="evenodd" d="M46.1668 2.64556C46.1668 1.46779 47.192 0.522162 48.3908 0.673027C69.3972 3.31662 85.6668 21.2424 85.6668 43C85.6668 54.9613 80.6889 65.7164 72.7656 73.4346L79.5002 80.1691C80.7601 81.4291 79.8678 83.5833 78.086 83.5833H56.5002C55.3956 83.5833 54.5002 82.6879 54.5002 81.5833L54.5002 59.9975C54.5002 58.2157 56.6544 57.3234 57.9144 58.5833L65.4388 66.1077C71.5096 60.2398 75.3335 52.067 75.3335 43C75.3335 26.8473 63.4045 13.4186 47.8935 11.0679C46.924 10.921 46.1668 10.0921 46.1668 9.07499V2.64556ZM48.1668 2.64556C48.1668 2.6441 48.167 2.64465 48.1668 2.64556V2.66063C48.1582 2.65954 48.1497 2.65846 48.1411 2.65738C48.141 2.65737 48.1415 2.65743 48.1425 2.65745L48.146 2.65729C48.149 2.657 48.152 2.65637 48.1547 2.65549C48.1601 2.65375 48.1627 2.65166 48.1636 2.65092C48.1643 2.65021 48.1651 2.6493 48.1659 2.64768C48.1662 2.64697 48.1666 2.64624 48.1668 2.64556C48.1669 2.64535 48.1668 2.64576 48.1668 2.64556ZM48.1668 9.07456V2.66063C68.1738 5.19141 83.6668 22.2724 83.6668 43C83.6668 54.7481 78.6276 65.279 70.6531 72.6839L69.8926 73.39L78.086 81.5833H56.5002L56.5002 59.9975L65.3852 68.8826L66.0909 68.2387C72.9511 61.9787 77.3335 53.0079 77.3335 43C77.3335 25.8422 64.6657 11.5869 48.1932 9.09052C48.1825 9.0889 48.1746 9.08398 48.1694 9.07814C48.168 9.07651 48.1672 9.07526 48.1668 9.07456ZM48.1668 9.07456C48.1668 9.07445 48.1669 9.07474 48.1668 9.07456V9.07456ZM6.50016 5.83088C5.24023 4.57095 6.13257 2.41666 7.91438 2.41666L29.5002 2.41666C30.6047 2.41666 31.5002 3.31209 31.5002 4.41666L31.5002 26.0024C31.5002 27.7843 29.3459 28.6766 28.086 27.4167L20.5616 19.8923C14.4908 25.7602 10.6668 33.933 10.6668 43C10.6668 59.1527 22.5958 72.5814 38.1068 74.9321C39.0763 75.079 39.8335 75.9079 39.8335 76.925V83.3544C39.8335 84.5322 38.8083 85.4778 37.6095 85.327C16.6031 82.6834 0.333496 64.7576 0.333496 43C0.333496 31.0387 5.31145 20.2836 13.2347 12.5654L6.50016 5.83088ZM29.5002 4.41666L7.91438 4.41666L16.1077 12.61L15.3473 13.3161C7.37277 20.721 2.3335 31.2519 2.3335 43C2.3335 63.7275 17.8266 80.8086 37.8335 83.3394V76.9254C37.8331 76.9247 37.8323 76.9235 37.8309 76.9219C37.8258 76.916 37.8178 76.9111 37.8071 76.9095C21.3346 74.4131 8.66683 60.1578 8.66683 43C8.66683 32.9921 13.0492 24.0213 19.9094 17.7613L20.6151 17.1174L29.5002 26.0024L29.5002 4.41666Z" fill="#218A3D"/>
</svg>
