<svg width="327" height="70" viewBox="0 0 327 70" fill="none" xmlns="http://www.w3.org/2000/svg">
<g clip-path="url(#clip0_128_25131)">
<path d="M59.1377 16.0874H61.4227V22.3372H61.4669L66.5398 16.0874H69.2131L63.399 23.0689L69.5395 30.3765H66.7604L61.4669 24.0209H61.4227V30.3765H59.1377V16.0874Z" fill="white"/>
<path d="M76.7916 30.8611C75.2918 34.9865 73.642 35.5242 71.8422 35.5242C71.1018 35.537 70.3675 35.3896 69.6895 35.0923L70.2541 33.3293C70.7191 33.5658 71.2322 33.6925 71.7539 33.6995C72.9715 33.6995 73.9508 32.8797 74.7536 30.4027L70.1482 20.1685H72.5744L75.7682 27.7582L78.3091 20.1685H80.6736L76.7916 30.8611Z" fill="white"/>
<path d="M89.1434 25.5284C89.1434 23.88 88.5964 22.3638 86.779 22.3638C85.8174 22.4048 84.8822 22.69 84.0616 23.1924V24.0122C84.0616 27.2825 85.0409 28.7811 86.7084 28.7811C88.5347 28.7547 89.2052 27.2914 89.2052 25.5284H89.1434ZM81.7677 23.9152C81.7677 21.447 82.4206 19.0317 83.3911 17.9915C84.6527 16.4753 86.1526 16.2285 90.6433 15.0649V17.1453C86.6907 18.2031 85.5438 18.4235 84.8733 19.3755C84.4705 19.9968 84.2169 20.7028 84.1322 21.4382C85.0413 20.8954 86.0734 20.5921 87.1319 20.5567C90.1316 20.5567 91.4285 22.6811 91.4285 25.3697C91.4285 28.3844 89.7787 30.6587 86.5408 30.6587C83.6999 30.6587 81.7236 28.7723 81.7236 23.9328" fill="white"/>
<path d="M97.763 25.5285C97.1936 25.5113 96.6282 25.6292 96.1132 25.8723C95.8821 25.9992 95.6922 26.1894 95.5656 26.4205C95.439 26.6516 95.381 26.914 95.3985 27.1769C95.3891 27.376 95.419 27.5751 95.4866 27.7627C95.5542 27.9503 95.6582 28.1227 95.7926 28.2701C95.927 28.4175 96.0892 28.5369 96.2698 28.6216C96.4505 28.7063 96.6461 28.7545 96.8455 28.7636H97.066C97.9052 28.7229 98.6999 28.3746 99.2981 27.7851V25.5285H97.763ZM99.4569 29.3013C98.6666 30.1009 97.5908 30.5543 96.4661 30.5618C96.053 30.5881 95.6388 30.5328 95.2471 30.399C94.8554 30.2653 94.494 30.0557 94.1834 29.7822C93.8729 29.5088 93.6193 29.1769 93.4372 28.8055C93.2552 28.434 93.1482 28.0304 93.1223 27.6176C93.1223 27.5177 93.1223 27.4149 93.1223 27.3091C93.0973 26.7284 93.247 26.1535 93.5521 25.6586C93.8571 25.1636 94.3036 24.7714 94.8339 24.5324C95.6664 24.1624 96.5697 23.9789 97.4807 23.9947L99.3246 23.933V23.5363C99.352 23.265 99.3161 22.9911 99.2196 22.7361C99.1232 22.4811 98.9689 22.2519 98.7688 22.0665C98.5688 21.8811 98.3284 21.7446 98.0666 21.6678C97.8048 21.5909 97.5288 21.5757 97.2601 21.6234C96.2976 21.6313 95.3541 21.8928 94.5251 22.3815L93.7399 20.883C94.9152 20.2075 96.2484 19.8547 97.6042 19.8604C100.145 19.8604 101.574 21.0328 101.574 23.5275V27.4766C101.526 28.4505 101.591 29.4267 101.768 30.3855H99.8363L99.4569 29.3013Z" fill="white"/>
<path d="M104.23 20.1157H106.489V23.9414H110.829V20.1157H113.088V30.3764H110.829V25.9072H106.489V30.3764H104.23V20.1157Z" fill="white"/>
<path d="M115.267 25.3254C115.207 23.9393 115.7 22.5862 116.638 21.5631C117.576 20.54 118.882 19.9307 120.269 19.8689H120.56C121.51 19.8446 122.448 20.076 123.278 20.5389V22.4694C122.543 21.9657 121.671 21.701 120.781 21.7113C118.787 21.7113 117.569 23.2274 117.569 25.2373C117.569 27.4675 118.787 28.7633 120.648 28.7633C121.508 28.7532 122.349 28.5127 123.083 28.0669L123.736 29.6271C122.726 30.2754 121.549 30.6154 120.348 30.6056C117.075 30.6056 115.249 28.2873 115.249 25.3166" fill="white"/>
<path d="M125.448 20.1247H127.707V24.2854H128.907C130.257 24.2854 130.23 22.0552 131.06 20.7594C131.255 20.4568 131.526 20.2111 131.847 20.0471C132.168 19.883 132.526 19.8064 132.886 19.825C133.208 19.8254 133.529 19.8699 133.839 19.9572V21.8877C133.663 21.8271 133.478 21.7972 133.292 21.7996C133.147 21.7959 133.004 21.8278 132.875 21.8923C132.746 21.9569 132.634 22.0522 132.551 22.1698C132.012 22.9279 131.942 24.5498 130.989 25.114C131.274 25.2308 131.531 25.4079 131.741 25.6331C131.951 25.8583 132.11 26.1263 132.206 26.4186L134.095 30.306H131.668L130.257 26.9652C129.913 26.2335 129.604 25.9426 129.304 25.9426H127.672V30.3501H125.413V20.1247H125.448Z" fill="white"/>
<path d="M135.912 20.125H138.126V25.1143C138.145 25.8383 138.116 26.5627 138.038 27.2828C138.364 26.7451 138.823 26.0222 139.432 25.1319L142.961 20.125H145.131V30.3857H142.917V25.3964C142.91 24.6725 142.939 23.9488 143.005 23.2279H142.943C142.635 23.748 142.185 24.4884 141.576 25.3787L138.047 30.3857H135.876V20.125H135.912Z" fill="white"/>
<path d="M149.048 15.1616H150.963C150.939 15.3912 150.964 15.6233 151.035 15.8427C151.107 16.0622 151.224 16.2642 151.378 16.4356C151.533 16.6071 151.722 16.7441 151.933 16.838C152.144 16.9318 152.373 16.9803 152.604 16.9803C152.835 16.9803 153.063 16.9318 153.274 16.838C153.486 16.7441 153.675 16.6071 153.829 16.4356C153.984 16.2642 154.101 16.0622 154.172 15.8427C154.244 15.6233 154.269 15.3912 154.245 15.1616H156.133C156.174 15.6327 156.111 16.1072 155.948 16.551C155.784 16.9949 155.525 17.3971 155.187 17.729C154.85 18.0609 154.444 18.3142 153.997 18.4708C153.55 18.6273 153.075 18.6833 152.604 18.6347C150.257 18.6347 149.004 17.1803 149.075 15.1616H149.048ZM147.901 20.1245H150.081V25.1138C150.099 25.8378 150.07 26.5622 149.992 27.2823C150.319 26.7445 150.778 26.0217 151.386 25.1314L154.915 20.1245H157.139V30.3851H154.924V25.3958C154.917 24.672 154.946 23.9482 155.012 23.2274H154.951C154.651 23.7474 154.192 24.4879 153.583 25.3782L150.054 30.3851H147.884V20.1245H147.901Z" fill="white"/>
<path d="M164.611 20.1157H171.819L171.149 22.1167H166.87V30.3764H164.611V20.1157Z" fill="white"/>
<path d="M180.651 25.2199C180.651 23.1836 179.698 21.6939 178.004 21.6939C176.311 21.6939 175.358 23.166 175.358 25.2199C175.358 27.2738 176.337 28.7459 178.004 28.7459C179.672 28.7459 180.651 27.2738 180.651 25.2199ZM172.967 25.2199C172.967 22.1611 174.97 19.8604 177.978 19.8604C180.987 19.8604 183.016 22.1258 183.016 25.2199C183.016 28.3139 181.022 30.597 178.022 30.597C175.022 30.597 173.02 28.2787 173.02 25.2199" fill="white"/>
<path d="M184.647 25.3256C184.588 23.9395 185.081 22.5863 186.019 21.5632C186.957 20.5402 188.263 19.9309 189.65 19.8691H189.941C190.89 19.8473 191.828 20.0786 192.658 20.539V22.4695C191.924 21.9659 191.052 21.7011 190.162 21.7114C188.159 21.7114 186.95 23.2276 186.95 25.2374C186.95 27.4676 188.159 28.7634 190.029 28.7634C190.889 28.7538 191.73 28.5132 192.464 28.067L193.117 29.6273C192.11 30.2739 190.936 30.6138 189.738 30.6058C186.456 30.6058 184.639 28.2874 184.639 25.3167" fill="white"/>
<path d="M200.325 30.8611C198.825 34.9865 197.176 35.5242 195.376 35.5242C194.636 35.537 193.901 35.3896 193.223 35.0923L193.788 33.3293C194.25 33.5648 194.76 33.6915 195.279 33.6995C196.496 33.6995 197.476 32.8797 198.278 30.4027L193.682 20.1685H196.108L199.302 27.7582L201.843 20.1685H204.19L200.325 30.8611Z" fill="white"/>
<path d="M212.218 22.0021H210.189C209.917 24.2957 209.178 26.5094 208.019 28.5076H212.227V22.0021H212.218ZM204.904 28.5516H205.557C207.031 26.7269 207.754 24.5408 208.53 20.1333H214.486V28.5516H215.941V33.9905H213.842V30.3852H207.022V33.9817H204.922V28.5428L204.904 28.5516Z" fill="white"/>
<path d="M222.126 25.5285C221.556 25.5117 220.991 25.6295 220.476 25.8723C220.245 25.9992 220.055 26.1894 219.928 26.4205C219.802 26.6516 219.744 26.914 219.761 27.1769C219.752 27.376 219.782 27.5751 219.849 27.7627C219.917 27.9503 220.021 28.1227 220.155 28.2701C220.29 28.4175 220.452 28.5369 220.633 28.6216C220.813 28.7063 221.009 28.7545 221.208 28.7636H221.429C222.268 28.7229 223.063 28.3746 223.661 27.7851V25.5285H222.126ZM223.82 29.3013C223.427 29.6983 222.96 30.014 222.446 30.2303C221.931 30.4466 221.378 30.5593 220.82 30.5618C220.407 30.5881 219.993 30.5328 219.601 30.399C219.209 30.2653 218.848 30.0557 218.537 29.7822C218.227 29.5088 217.973 29.1769 217.791 28.8055C217.609 28.434 217.502 28.0304 217.476 27.6176C217.476 27.5177 217.476 27.4149 217.476 27.3091C217.451 26.7284 217.601 26.1535 217.906 25.6586C218.211 25.1636 218.658 24.7714 219.188 24.5324C220.02 24.1621 220.924 23.9786 221.835 23.9947L223.679 23.933V23.5363C223.706 23.265 223.67 22.9911 223.574 22.7361C223.477 22.4811 223.323 22.2519 223.123 22.0665C222.923 21.8811 222.682 21.7446 222.421 21.6678C222.159 21.5909 221.883 21.5757 221.614 21.6234C220.651 21.6304 219.708 21.892 218.879 22.3815L218.094 20.883C219.269 20.2075 220.602 19.8547 221.958 19.8604C224.499 19.8604 225.928 21.0328 225.928 23.5275V27.4766C225.88 28.4505 225.945 29.4267 226.122 30.3855H224.19L223.82 29.3013Z" fill="white"/>
<path d="M232.307 28.7106C234.345 28.7106 235.413 27.3267 235.413 25.1846C235.413 22.8222 234.107 21.738 232.184 21.738C231.721 21.734 231.26 21.7993 230.816 21.9319V28.3757C231.284 28.5985 231.797 28.7101 232.316 28.7018L232.307 28.7106ZM228.602 20.5039C229.794 20.0796 231.05 19.8591 232.316 19.8516C235.845 19.8516 237.786 21.8878 237.786 25.2111C237.81 26.0554 237.629 26.893 237.259 27.6523C236.888 28.4115 236.339 29.0697 235.658 29.5705C234.977 30.0714 234.185 30.3999 233.35 30.528C232.514 30.6561 231.66 30.58 230.86 30.3062V35.507H228.602V20.5215V20.5039Z" fill="white"/>
<path d="M239.409 25.3254C239.349 23.9393 239.843 22.5862 240.781 21.5631C241.719 20.54 243.024 19.9307 244.412 19.8689H244.703C245.652 19.8446 246.591 20.076 247.42 20.5389V22.4694C246.686 21.9647 245.814 21.6998 244.923 21.7113C242.929 21.7113 241.712 23.2274 241.712 25.2373C241.712 27.4675 242.929 28.7633 244.8 28.7633C245.659 28.7536 246.5 28.5131 247.235 28.0669L247.888 29.6271C246.872 30.2756 245.688 30.6126 244.482 30.5968C241.209 30.5968 239.383 28.2784 239.383 25.3078" fill="white"/>
<path d="M251.911 22.0286H248.717V20.1157H257.902L257.275 22.0286H254.17V30.3764H251.911V22.0286Z" fill="white"/>
<path d="M263.698 28.7373C264.933 28.7373 265.463 28.2789 265.463 27.3445C265.463 26.4101 264.872 25.9605 263.769 25.9605H261.66V28.7373H263.698ZM263.592 24.4179C264.677 24.4179 265.242 23.986 265.242 23.0957C265.242 22.2053 264.783 21.7734 263.478 21.7734H261.713V24.4179H263.592ZM259.534 20.125H263.442C266.504 20.125 267.483 21.553 267.483 22.8753C267.496 23.3923 267.326 23.8973 267.003 24.3018C266.68 24.7063 266.226 24.9846 265.719 25.0878C266.259 25.1806 266.751 25.4598 267.107 25.8769C267.463 26.294 267.662 26.8226 267.668 27.3709C267.668 28.799 266.671 30.2975 263.566 30.2975H259.481V20.125H259.534Z" fill="white"/>
<path d="M276.006 24.2056C276.006 22.901 275.335 21.6228 273.88 21.6228C272.424 21.6228 271.709 22.8129 271.691 24.2056H276.006ZM271.709 25.81C271.678 26.5731 271.951 27.3175 272.469 27.8794C272.987 28.4413 273.707 28.775 274.471 28.8071H274.771C275.679 28.8078 276.571 28.5675 277.356 28.1107L278.008 29.6533C276.947 30.3004 275.723 30.6307 274.479 30.6053C270.897 30.6053 269.354 28.0666 269.354 25.2282C269.354 22.1253 271.065 19.8687 273.844 19.8687C276.623 19.8687 278.255 21.949 278.255 25.2723V25.8188H271.691L271.709 25.81Z" fill="white"/>
<path d="M280.505 20.1157H282.763V23.9414H287.104V20.1157H289.363V30.3764H287.104V25.9072H282.763V30.3764H280.505V20.1157Z" fill="white"/>
<path d="M292.071 20.1157H294.33V23.9414H298.671V20.1157H300.938V30.3764H298.671V25.9072H294.33V30.3764H292.071V20.1157Z" fill="white"/>
<path d="M312.787 20.125H315.063V30.3857H312.805V20.125H312.787ZM306.964 28.6227C308.808 28.6227 309.161 27.9527 309.161 27.1065C309.161 26.2602 308.728 25.6079 306.964 25.6079C306.61 25.6111 306.257 25.6347 305.905 25.6785V28.6315H306.964V28.6227ZM303.647 20.125H305.905V23.889C306.286 23.8446 306.669 23.821 307.052 23.8185C310.325 23.8185 311.463 25.3347 311.463 27.0536C311.463 28.7725 310.44 30.3769 307.052 30.3769H303.594V20.125H303.647Z" fill="white"/>
<path d="M318.954 15.1616H320.842C320.818 15.3912 320.843 15.6233 320.914 15.8427C320.986 16.0622 321.103 16.2642 321.258 16.4356C321.412 16.6071 321.601 16.7441 321.812 16.838C322.023 16.9318 322.252 16.9803 322.483 16.9803C322.714 16.9803 322.942 16.9318 323.154 16.838C323.365 16.7441 323.554 16.6071 323.708 16.4356C323.863 16.2642 323.98 16.0622 324.052 15.8427C324.123 15.6233 324.148 15.3912 324.124 15.1616H326.012C326.055 15.6331 325.993 16.1083 325.83 16.5528C325.667 16.9974 325.408 17.4004 325.07 17.7326C324.732 18.0648 324.325 18.3181 323.878 18.4741C323.431 18.6301 322.954 18.685 322.483 18.6347C320.136 18.6347 318.883 17.1803 318.954 15.1616ZM317.78 20.1245H319.995V25.1138C320.014 25.8378 319.984 26.5622 319.907 27.2823C320.233 26.7445 320.683 26.0217 321.301 25.1314L324.83 20.1245H327V30.3851H324.768V25.3958C324.761 24.672 324.79 23.9482 324.856 23.2274H324.794C324.494 23.7474 324.036 24.4879 323.427 25.3782L319.898 30.3851H317.728V20.1245H317.78Z" fill="white"/>
<path d="M62.808 44.9744C62.2386 44.9576 61.6733 45.0754 61.1581 45.3182C60.9285 45.4445 60.7395 45.6333 60.613 45.8626C60.4865 46.092 60.4277 46.3525 60.4435 46.614C60.4217 47.0119 60.5576 47.4024 60.8218 47.701C61.086 47.9996 61.4572 48.1823 61.8551 48.2095H62.0845C62.9237 48.1688 63.7184 47.8205 64.3166 47.231V44.9215L62.808 44.9744ZM64.5019 48.7472C64.1095 49.1442 63.6425 49.4599 63.1278 49.6762C62.613 49.8925 62.0606 50.0052 61.5022 50.0077C61.0891 50.034 60.6749 49.9787 60.2832 49.8449C59.8915 49.7112 59.5301 49.5016 59.2195 49.2281C58.909 48.9547 58.6554 48.6228 58.4734 48.2513C58.2913 47.8799 58.1843 47.4763 58.1585 47.0635C58.1585 46.9636 58.1585 46.8608 58.1585 46.755C58.1334 46.1743 58.2831 45.5994 58.5882 45.1045C58.8933 44.6095 59.3397 44.2173 59.87 43.9783C60.7026 43.6086 61.6059 43.4251 62.5168 43.4406L64.3607 43.3789V42.9469C64.3881 42.6757 64.3522 42.4018 64.2558 42.1467C64.1593 41.8917 64.005 41.6625 63.805 41.4771C63.6049 41.2918 63.3645 41.1553 63.1027 41.0784C62.841 41.0015 62.5649 40.9863 62.2962 41.0341C61.3336 41.0415 60.3901 41.303 59.5612 41.7921L58.776 40.2936C59.9515 39.6185 61.2846 39.2657 62.6403 39.2711C65.1812 39.2711 66.6105 40.4435 66.6105 42.9381V46.8872C66.5612 47.8611 66.6264 48.8374 66.8046 49.7962H64.8724L64.5019 48.7472Z" fill="white"/>
<path d="M69.2837 39.5269H76.4829L75.8124 41.5279H71.5335V49.7875H69.2837V39.5269Z" fill="white"/>
<path d="M81.8913 48.1213C83.9293 48.1213 84.9968 46.7285 84.9968 44.5953C84.9968 42.2241 83.6911 41.1398 81.7677 41.1398C81.3048 41.1354 80.8437 41.2008 80.4002 41.3338V47.7775C80.8684 48.0001 81.3817 48.1117 81.9001 48.1037L81.8913 48.1213ZM78.1417 39.9057C79.3342 39.481 80.59 39.2605 81.856 39.2534C85.385 39.2534 87.326 41.2897 87.326 44.6129C87.3715 45.3233 87.2664 46.0353 87.0177 46.7024C86.7689 47.3695 86.3821 47.9766 85.8825 48.4841C85.3829 48.9916 84.7817 49.3881 84.1183 49.6476C83.4549 49.9071 82.7441 50.0238 82.0324 49.9901C81.4708 49.9865 80.9135 49.8913 80.3826 49.708V54.9089H78.124V39.9234L78.1417 39.9057Z" fill="white"/>
<path d="M93.6165 44.9744C93.0472 44.9579 92.482 45.0757 91.9667 45.3182C91.7371 45.4445 91.5481 45.6333 91.4216 45.8626C91.2951 46.092 91.2363 46.3525 91.2521 46.614C91.2414 46.8131 91.2701 47.0125 91.3366 47.2005C91.4032 47.3886 91.5062 47.5617 91.6398 47.7099C91.7734 47.8581 91.9349 47.9785 92.1151 48.0642C92.2954 48.15 92.4908 48.1993 92.6902 48.2095H92.9196C93.7618 48.171 94.5601 47.8224 95.1605 47.231V44.9215L93.6165 44.9744ZM95.3105 48.7472C94.9181 49.1442 94.4511 49.4599 93.9364 49.6762C93.4216 49.8925 92.8692 50.0052 92.3108 50.0077C91.8977 50.034 91.4835 49.9787 91.0918 49.8449C90.7001 49.7112 90.3387 49.5016 90.0281 49.2281C89.7176 48.9547 89.464 48.6228 89.282 48.2513C89.0999 47.8799 88.9929 47.4763 88.967 47.0635C88.967 46.9636 88.967 46.8608 88.967 46.755C88.942 46.1743 89.0917 45.5994 89.3968 45.1045C89.7019 44.6095 90.1483 44.2173 90.6786 43.9783C91.5112 43.6089 92.4145 43.4254 93.3254 43.4406L95.1693 43.3789V42.9469C95.1967 42.6757 95.1608 42.4018 95.0644 42.1467C94.9679 41.8917 94.8136 41.6625 94.6135 41.4771C94.4135 41.2918 94.1731 41.1553 93.9113 41.0784C93.6495 41.0015 93.3735 40.9863 93.1048 41.0341C92.1423 41.0419 91.1989 41.3034 90.3698 41.7921L89.5846 40.2936C90.76 39.6185 92.0931 39.2657 93.4489 39.2711C95.9898 39.2711 97.4191 40.4435 97.4191 42.9381V46.8872C97.37 47.8611 97.4351 48.8374 97.6132 49.7962H95.6722L95.3105 48.7472Z" fill="white"/>
<path d="M103.797 48.1213C105.835 48.1213 106.903 46.7285 106.903 44.5953C106.903 42.2241 105.606 41.1398 103.674 41.1398C103.211 41.1354 102.75 41.2008 102.306 41.3338V47.7775C102.775 48.0001 103.288 48.1117 103.806 48.1037L103.797 48.1213ZM100.048 39.9057C101.24 39.4812 102.496 39.2606 103.762 39.2534C107.291 39.2534 109.232 41.2897 109.232 44.6129C109.278 45.3233 109.173 46.0353 108.924 46.7024C108.675 47.3695 108.288 47.9766 107.789 48.4841C107.289 48.9916 106.688 49.3881 106.024 49.6476C105.361 49.9071 104.65 50.0238 103.939 49.9901C103.377 49.9867 102.82 49.8914 102.289 49.708V54.9089H100.083V39.9234L100.048 39.9057Z" fill="white"/>
<path d="M111.438 39.5269H113.697V43.3438H118.037V39.5269H120.296V49.7875H118.037V45.3183H113.697V49.7875H111.438V39.5269Z" fill="white"/>
<path d="M132.153 39.5347H134.412V49.7953H132.153V39.5347ZM126.339 48.0412C128.183 48.0412 128.527 47.3712 128.527 46.525C128.527 45.6787 128.095 45.0264 126.339 45.0264C125.982 45.0289 125.626 45.0524 125.272 45.0969V48.05H126.339V48.0412ZM123.022 39.5347H125.281V43.281C125.661 43.237 126.044 43.2134 126.427 43.2105C129.701 43.2105 130.795 44.7267 130.795 46.4456C130.795 48.1646 129.771 49.7689 126.383 49.7689H123.022V39.5347Z" fill="white"/>
<path d="M138.32 34.564H140.208C140.179 34.7962 140.199 35.032 140.268 35.2558C140.336 35.4795 140.452 35.6861 140.607 35.8618C140.762 36.0374 140.952 36.1781 141.166 36.2745C141.379 36.3709 141.611 36.4207 141.845 36.4207C142.079 36.4207 142.311 36.3709 142.524 36.2745C142.738 36.1781 142.928 36.0374 143.083 35.8618C143.238 35.6861 143.354 35.4795 143.422 35.2558C143.491 35.032 143.511 34.7962 143.482 34.564H145.37C145.411 35.0347 145.348 35.5089 145.185 35.9524C145.021 36.3959 144.761 36.7977 144.424 37.1289C144.087 37.4601 143.68 37.7126 143.233 37.8681C142.787 38.0236 142.311 38.0783 141.841 38.0283C139.494 38.0283 138.241 36.5826 138.312 34.564H138.32ZM137.138 39.5356H139.353V44.5249C139.371 45.2489 139.342 45.9733 139.264 46.6934C139.591 46.1557 140.05 45.4329 140.65 44.5426L144.179 39.5356H146.349V49.7963H144.196V44.807C144.189 44.0832 144.218 43.3594 144.284 42.6385H144.196C143.896 43.1586 143.437 43.8991 142.829 44.7894L139.3 49.8051H137.138V39.5356Z" fill="white"/>
<path d="M159.38 50.2722C157.88 54.3976 156.23 54.9353 154.431 54.9353C153.69 54.9484 152.956 54.8011 152.278 54.5034L152.842 52.7404C153.307 52.9773 153.821 53.104 154.342 53.1106C155.56 53.1106 156.53 52.2908 157.333 49.8138L152.728 39.5796H155.154L158.348 47.1693L160.889 39.5796H163.235L159.38 50.2722Z" fill="white"/>
<path d="M164.85 39.5269H167.108V43.3438H171.449V39.5269H173.707V49.7875H171.449V45.3183H167.108V49.7875H164.85V39.5269Z" fill="white"/>
<path d="M176.425 39.5347H178.604V44.524C178.604 45.3438 178.604 46.0666 178.516 46.6925C178.842 46.1547 179.301 45.4319 179.91 44.5416L183.439 39.5347H185.662V49.7953H183.448V44.806C183.44 44.0822 183.469 43.3584 183.536 42.6376H183.457C183.148 43.1576 182.698 43.8981 182.089 44.7884L178.56 49.8042H176.39V39.5347H176.425Z" fill="white"/>
<path d="M192.553 48.1469C193.788 48.1469 194.317 47.6886 194.317 46.7542C194.317 45.8198 193.735 45.3702 192.623 45.3702H190.515V48.1469H192.553ZM192.429 43.8276C193.514 43.8276 194.079 43.3956 194.079 42.5053C194.079 41.615 193.629 41.1831 192.314 41.1831H190.55V43.8276H192.429ZM188.371 39.5347H192.279C195.341 39.5347 196.32 40.9715 196.32 42.2938C196.332 42.8108 196.162 43.3158 195.84 43.7203C195.517 44.1248 195.063 44.403 194.555 44.5063C195.107 44.5945 195.609 44.8764 195.971 45.3013C196.334 45.7263 196.532 46.2665 196.532 46.8247C196.532 48.2527 195.535 49.7513 192.429 49.7513H188.327V39.5347H188.371Z" fill="white"/>
<path d="M204.86 43.6075C204.86 42.3029 204.19 41.0247 202.734 41.0247C201.278 41.0247 200.564 42.2147 200.537 43.6075H204.86ZM200.564 45.2118C200.535 45.9773 200.812 46.7229 201.333 47.2848C201.854 47.8467 202.577 48.1791 203.343 48.2089H203.625C204.533 48.2093 205.425 47.969 206.21 47.5125L206.881 49.0552C205.819 49.7018 204.595 50.0321 203.352 50.0072C199.77 50.0072 198.226 47.4685 198.226 44.63C198.226 41.5271 199.99 39.2705 202.716 39.2705C205.442 39.2705 207.128 41.3509 207.128 44.6741V45.2206H200.564V45.2118Z" fill="white"/>
<path d="M213.074 48.1213C215.112 48.1213 216.179 46.7285 216.179 44.5953C216.179 42.2241 214.874 41.1398 212.942 41.1398C212.479 41.1354 212.018 41.2008 211.574 41.3338V47.7775C212.042 48.0001 212.556 48.1117 213.074 48.1037V48.1213ZM209.316 39.9057C210.508 39.4813 211.764 39.2608 213.03 39.2534C216.559 39.2534 218.5 41.2897 218.5 44.6129C218.545 45.3233 218.44 46.0353 218.192 46.7024C217.943 47.3695 217.556 47.9766 217.056 48.4841C216.557 48.9916 215.956 49.3881 215.292 49.6476C214.629 49.9071 213.918 50.0238 213.206 49.9901C212.645 49.9867 212.087 49.8914 211.556 49.708V54.9089H209.298V39.9234L209.316 39.9057Z" fill="white"/>
<path d="M220.176 44.7361C220.116 43.35 220.61 41.9968 221.548 40.9737C222.486 39.9507 223.791 39.3413 225.179 39.2796H225.47C226.419 39.2553 227.358 39.4867 228.187 39.9495V41.88C227.453 41.3758 226.581 41.111 225.69 41.1219C223.697 41.1219 222.479 42.6381 222.479 44.6479C222.479 46.8781 223.696 48.1739 225.567 48.1739C226.425 48.1665 227.266 47.9291 228.002 47.4864L228.655 49.0466C227.645 49.6948 226.467 50.0349 225.267 50.0251C221.994 50.0251 220.167 47.7067 220.167 44.7361" fill="white"/>
<path d="M230.366 39.5347H232.581V44.524C232.581 45.3438 232.581 46.0666 232.492 46.6925C232.819 46.1547 233.278 45.4319 233.886 44.5416L237.415 39.5347H239.586V49.7953H237.38V44.806C237.373 44.0822 237.402 43.3584 237.468 42.6376H237.424C237.124 43.1576 236.666 43.8981 236.057 44.7884L232.528 49.8042H230.366V39.5347Z" fill="white"/>
<path d="M244.641 41.4397H241.447V39.5269H250.632L249.996 41.4397H246.9V49.7875H244.641V41.4397Z" fill="white"/>
<path d="M258.343 43.6075C258.343 42.3029 257.672 41.0247 256.216 41.0247C254.761 41.0247 254.046 42.2147 254.028 43.6075H258.343ZM254.046 45.2118C254.015 45.975 254.288 46.7193 254.806 47.2813C255.324 47.8432 256.044 48.1769 256.807 48.2089H257.107C258.016 48.2089 258.907 47.9686 259.692 47.5125L260.363 49.0552C259.301 49.7018 258.077 50.0321 256.834 50.0072C253.252 50.0072 251.708 47.4685 251.708 44.63C251.708 41.5271 253.42 39.2705 256.199 39.2705C258.978 39.2705 260.61 41.3509 260.61 44.6741V45.2206H254.046V45.2118Z" fill="white"/>
<path d="M265.154 41.4397H261.96V39.5269H271.144L270.518 41.4397H267.412V49.7875H265.154V41.4397Z" fill="white"/>
<path d="M9.6871 17.5155L19.339 7.89835L23.1239 11.68L5.80516 28.9574C5.72956 28.3728 5.69125 27.7839 5.69047 27.1944C5.69121 25.4102 6.04466 23.6437 6.73051 21.9964C7.41636 20.349 8.42112 18.8532 9.6871 17.5949V17.5155ZM30.6937 19.6752L11.5663 38.7509L10.0047 37.1377H9.95178L9.66945 36.8645C9.01452 36.224 8.42356 35.5214 7.90494 34.7665L27.0323 15.5939L28.9468 17.5067C29.5817 18.1423 30.152 18.8392 30.6495 19.5871L30.6937 19.6752ZM28.9556 36.7851L19.3125 46.4817L15.4924 42.6648L32.8111 25.3521C33.0955 27.4299 32.8955 29.5452 32.2267 31.533C31.5579 33.5208 30.4384 35.3274 28.9556 36.8116V36.7851ZM6.01691 41.1133L19.2508 54.3358L32.7405 40.8577L33.5522 40.0291C36.701 36.5223 38.4535 31.9836 38.4779 27.2724C38.5022 22.5613 36.7968 18.0047 33.6845 14.4655L19.2331 -0.0351562L5.62871 13.5928C2.02391 17.1978 -0.000976562 22.0853 -0.000976562 27.1812C-0.000976562 32.2771 2.02391 37.1645 5.62871 40.7695L5.99926 41.1221" fill="white"/>
<path d="M38.1927 39.4121C37.4562 42.5449 35.9387 45.4408 33.7815 47.8304L32.9698 48.6591L19.5065 62.1372L6.27266 48.9147L5.91094 48.5621C3.38918 46.0513 1.6225 42.8844 0.811487 39.4209H0.599745C0.0389289 42.4717 0.227644 45.6128 1.14968 48.5746C2.07172 51.5365 3.69952 54.2304 5.89329 56.4251L6.27266 56.7777L19.5065 70.0002L32.9433 56.522L33.755 55.6934C35.7161 53.511 37.1515 50.9093 37.9513 48.0873C38.7511 45.2652 38.894 42.2978 38.3692 39.4121H38.1927Z" fill="white"/>
</g>
<defs>
<clipPath id="clip0_128_25131">
<rect width="327" height="70" fill="white"/>
</clipPath>
</defs>
</svg>
