<svg width="18" height="19" viewBox="0 0 18 19" fill="none" xmlns="http://www.w3.org/2000/svg">
<path fill-rule="evenodd" clip-rule="evenodd" d="M12.9361 12.0218C13.8454 10.8173 14.3846 9.31778 14.3846 7.69231C14.3846 3.72011 11.1645 0.5 7.19231 0.5C3.22011 0.5 0 3.72011 0 7.69231C0 11.6645 3.22011 14.8846 7.19231 14.8846C8.81781 14.8846 10.3174 14.3454 11.5219 13.436L16.2929 18.2071C16.6835 18.5976 17.3166 18.5976 17.7072 18.2071C18.0977 17.8166 18.0977 17.1834 17.7072 16.7929L12.9361 12.0218ZM7.19231 12.8846C4.32468 12.8846 2 10.5599 2 7.69231C2 4.82468 4.32468 2.5 7.19231 2.5C10.0599 2.5 12.3846 4.82468 12.3846 7.69231C12.3846 9.18033 11.7613 10.5195 10.7558 11.4688C9.82414 12.3483 8.57302 12.8846 7.19231 12.8846Z" fill="#218A3D"/>
</svg>
