<svg width="28" height="28" viewBox="0 0 28 28" fill="none" xmlns="http://www.w3.org/2000/svg">
<g id="Socials / Odnoklassniki">
<path id="Vector" d="M13.9859 13.755C11.1322 13.755 8.76029 11.4285 8.76029 8.67557C8.76029 5.82747 11.1322 3.5 13.9869 3.5C16.9386 3.5 19.2125 5.82648 19.2125 8.67557C19.2074 10.0273 18.6558 11.3217 17.679 12.2743C16.7022 13.227 15.38 13.7599 14.0031 13.7559L13.9859 13.755ZM13.9859 6.4919C12.7777 6.4919 11.8585 7.48853 11.8585 8.67656C11.8585 9.86261 12.7777 10.765 13.9869 10.765C15.2446 10.765 16.1153 9.86261 16.1153 8.67656C16.1163 7.48754 15.2446 6.4919 13.9859 6.4919ZM16.0668 17.9815L19.0196 20.783C19.6004 21.3988 19.6004 22.3012 19.0196 22.8715C18.3912 23.4873 17.4225 23.4873 16.9386 22.8715L13.9869 20.0224L11.1322 22.8715C10.8422 23.1561 10.4543 23.2979 10.0179 23.2979C9.67954 23.2979 9.29265 23.1551 8.95323 22.8715C8.37238 22.3012 8.37238 21.3988 8.95323 20.782L11.9534 17.9805C10.87 17.6655 9.8306 17.2195 8.85928 16.6526C8.13297 16.2728 7.98852 15.3238 8.37541 14.6108C8.85928 13.8987 9.73005 13.7093 10.5048 14.1843C11.554 14.8129 12.7593 15.1454 13.9884 15.1454C15.2175 15.1454 16.4228 14.8129 17.472 14.1843C18.2468 13.7093 19.165 13.8987 19.6004 14.6108C20.0368 15.3238 19.8418 16.2718 19.164 16.6526C18.2458 17.2229 17.1811 17.6503 16.0678 17.9825L16.0668 17.9815Z" fill="white"/>
</g>
</svg>
