<svg width="223" height="44" viewBox="0 0 223 44" fill="none" xmlns="http://www.w3.org/2000/svg">
<path d="M14.1177 2.60205V17.9086H10.3639V6.61139H3.76064V17.9086H0V2.60205H14.1177Z" fill="white"/>
<path d="M33.0022 6.96657C33.647 8.4818 33.8296 10.1551 33.527 11.7747C33.2244 13.3942 32.4501 14.8871 31.3021 16.0644C30.5986 16.774 29.765 17.3399 28.8472 17.731C27.9293 18.1246 26.9414 18.3268 25.9434 18.3252C24.9509 18.3537 23.9649 18.1552 23.06 17.7446C22.3788 17.4676 21.8174 16.9569 21.4755 16.3035V24.2402H17.7148V2.60207H21.3599V4.20718C21.7036 3.54499 22.2769 3.03225 22.9716 2.76599C23.8867 2.35745 24.8811 2.15911 25.8822 2.18542C26.8945 2.18127 27.8976 2.37859 28.8336 2.76599C29.7568 3.14517 30.5958 3.70469 31.3021 4.41208C32.0252 5.14737 32.6022 6.01433 33.0022 6.96657ZM29.5272 11.8912C29.7488 11.3689 29.86 10.806 29.8536 10.2382C29.8606 9.67709 29.7493 9.1208 29.5272 8.60584C29.3194 8.12044 29.0111 7.68502 28.6227 7.32857C28.2193 6.95852 27.7449 6.67498 27.2287 6.49528C26.6548 6.29002 26.0493 6.1883 25.4401 6.19477C24.567 6.18055 23.7034 6.37978 22.924 6.77532C22.2877 7.0701 21.775 7.58028 21.4755 8.21651V12.3146C21.771 12.9537 22.285 13.465 22.924 13.7558C23.7023 14.1545 24.5666 14.3539 25.4401 14.3364C26.0489 14.345 26.6544 14.2456 27.2287 14.0427C27.7437 13.8603 28.2175 13.577 28.6227 13.2094C29.0128 12.8491 29.3212 12.4089 29.5272 11.9185" fill="white"/>
<path d="M40.0002 2.60205V11.7887L46.8959 2.60205H50.6565V17.9086H46.9571V8.72192L40.0614 17.9086H36.3008V2.60205H40.0002Z" fill="white"/>
<path d="M69.4255 10.2652C69.4295 11.3784 69.1977 12.4796 68.7454 13.4959C68.3275 14.4493 67.7293 15.3122 66.9841 16.0367C66.2412 16.749 65.3745 17.3185 64.4271 17.717C62.4523 18.5256 60.2408 18.5256 58.266 17.717C57.3186 17.3185 56.452 16.749 55.709 16.0367C54.9638 15.3122 54.3656 14.4493 53.9477 13.4959C53.5169 12.4774 53.2949 11.3821 53.2949 10.2755C53.2949 9.16884 53.5169 8.07356 53.9477 7.05502C54.7821 5.12543 56.3305 3.59715 58.266 2.79297C60.2408 1.98438 62.4523 1.98438 64.4271 2.79297C66.3626 3.59715 67.9111 5.12543 68.7454 7.05502C69.1937 8.06537 69.4254 9.15911 69.4255 10.2652ZM57.4363 8.61914C57.2156 9.13934 57.1045 9.69979 57.1099 10.2652C57.103 10.8286 57.2142 11.3871 57.4363 11.9045C57.6459 12.3889 57.954 12.8239 58.3408 13.1817C58.7352 13.5465 59.1974 13.8297 59.7009 14.015C60.2361 14.214 60.803 14.3135 61.3738 14.3087C61.9401 14.3142 62.5027 14.2146 63.0331 14.015C63.5345 13.8255 63.9959 13.5428 64.3932 13.1817C64.7778 12.8189 65.0894 12.3853 65.3112 11.9045C65.541 11.3891 65.657 10.8299 65.6512 10.2652C65.6556 9.6985 65.5397 9.13734 65.3112 8.61914C65.0931 8.13217 64.781 7.69342 64.3932 7.32822C63.9978 6.96467 63.5358 6.68167 63.0331 6.49493C62.5031 6.29317 61.9405 6.19131 61.3738 6.19442C60.8026 6.1918 60.2357 6.29362 59.7009 6.49493C59.1964 6.67825 58.7339 6.96164 58.3408 7.32822C57.9507 7.68849 57.6423 8.12874 57.4363 8.61914Z" fill="white"/>
<path d="M87.3109 6.96636C87.9557 8.48159 88.1384 10.1549 87.8357 11.7745C87.5331 13.394 86.7588 14.8869 85.6108 16.0642C84.9061 16.7754 84.0699 17.3416 83.1491 17.7308C82.2338 18.125 81.248 18.3272 80.2521 18.325C79.2574 18.3536 78.2691 18.1551 77.3619 17.7444C76.6856 17.4726 76.1268 16.9694 75.7842 16.3238V24.2605H72.0439V2.60187H75.6822V4.20697C76.0298 3.5479 76.6019 3.03636 77.2939 2.76579C78.2118 2.35844 79.2081 2.16017 80.2113 2.18521C81.2214 2.18106 82.2223 2.37841 83.1559 2.76579C84.0822 3.14287 84.9239 3.70259 85.6312 4.41187C86.3522 5.14894 86.9289 6.01546 87.3313 6.96636H87.3109ZM83.8495 11.891C84.0711 11.3687 84.1823 10.8058 84.1759 10.238C84.1829 9.67688 84.0716 9.12059 83.8495 8.60563C83.6415 8.12206 83.3359 7.68711 82.9519 7.32837C82.5484 6.95831 82.074 6.67478 81.5578 6.49508C80.9836 6.29092 80.3783 6.18923 79.7692 6.19457C78.8959 6.17869 78.032 6.37801 77.2531 6.77512C76.6141 7.06592 76.1001 7.57729 75.8046 8.21631V12.3144C76.096 12.9563 76.6113 13.4689 77.2531 13.7556C78.5953 14.4134 80.1408 14.5164 81.5578 14.0425C82.0653 13.8487 82.5298 13.5562 82.9247 13.1819C83.3105 12.8194 83.6164 12.3796 83.8223 11.891" fill="white"/>
<path d="M94.3015 2.60205V11.7887L101.197 2.60205H104.951V17.9086H101.252V8.72192L94.3559 17.9086H90.5952V2.60205H94.3015Z" fill="white"/>
<path d="M120.626 6.61139H115.92V17.9086H112.16V6.61139H107.454V2.60205H120.626V6.61139Z" fill="white"/>
<path d="M130.609 14.5214C131.54 14.525 132.464 14.3488 133.329 14.0023C134.093 13.7379 134.769 13.2649 135.281 12.6363L136.437 15.5528C135.883 16.4159 135.098 17.1047 134.172 17.5404C133.027 18.104 131.762 18.3805 130.487 18.3463C129.382 18.3558 128.286 18.1637 127.25 17.7794C126.286 17.4274 125.404 16.8812 124.659 16.1743C123.913 15.4642 123.326 14.6027 122.938 13.6472C122.513 12.579 122.303 11.4369 122.319 10.2867C122.313 9.23244 122.5 8.18605 122.87 7.19946C123.22 6.24732 123.751 5.37271 124.434 4.62445C125.128 3.87501 125.966 3.27342 126.896 2.85543C127.917 2.41009 129.02 2.18885 130.133 2.20655C131.194 2.19369 132.244 2.42745 133.2 2.88957C134.091 3.31642 134.885 3.9233 135.533 4.67227C136.185 5.4282 136.692 6.29895 137.029 7.24044C137.385 8.22077 137.567 9.25659 137.566 10.3004C137.566 10.5189 137.566 10.758 137.566 10.9834C137.562 11.1971 137.537 11.4098 137.491 11.6186H126.168C126.228 12.0774 126.393 12.5163 126.649 12.9012C126.905 13.2861 127.245 13.6068 127.644 13.8384C128.556 14.3223 129.578 14.5578 130.609 14.5214ZM133.717 8.51768C133.671 8.13876 133.541 7.77507 133.336 7.4535C133.131 7.13194 132.857 6.86071 132.534 6.65986C131.812 6.21762 130.978 5.99463 130.133 6.01782C129.261 6.00311 128.401 6.22491 127.644 6.65986C127.299 6.85012 127 7.11581 126.771 7.43735C126.541 7.75889 126.386 8.12808 126.318 8.51768H133.717Z" fill="white"/>
<path d="M152.425 6.61139H147.719V17.9086H143.958V6.61139H139.252V2.60205H152.425V6.61139Z" fill="white"/>
<path d="M159.77 5.73031C159.42 5.72859 159.073 5.78632 158.743 5.90107C158.441 6.01269 158.155 6.16429 157.893 6.35187C157.644 6.54102 157.416 6.75625 157.213 6.99391C157.01 7.23491 156.827 7.49315 156.669 7.76573L155.309 5.45711C155.426 5.00594 155.624 4.58004 155.893 4.20035C156.177 3.80637 156.521 3.46049 156.913 3.17582C157.342 2.87594 157.815 2.64546 158.314 2.4928C158.864 2.31952 159.438 2.23424 160.014 2.24008C160.736 2.22451 161.454 2.34737 162.129 2.60209C162.696 2.81615 163.209 3.15025 163.635 3.58164C164.061 4.01303 164.39 4.53158 164.598 5.10195C164.813 5.69268 164.921 6.31717 164.918 6.94609C164.92 7.4622 164.856 7.97648 164.727 8.47607C164.593 8.95209 164.404 9.41059 164.163 9.84212C163.89 10.3209 163.581 10.7776 163.238 11.2082C162.862 11.6635 162.433 12.1621 161.953 12.704L160.45 14.3979H165.21V17.9086H155.417V15.1765L159.783 10.3954C160.096 10.0539 160.368 9.76015 160.593 9.50061C160.786 9.28266 160.966 9.05221 161.13 8.81075C161.27 8.59738 161.384 8.3681 161.47 8.12773C161.552 7.8908 161.591 7.64094 161.585 7.39007C161.589 7.17326 161.547 6.95812 161.461 6.75906C161.376 6.55999 161.249 6.38159 161.089 6.23576C160.714 5.90606 160.226 5.73688 159.729 5.76448" fill="white"/>
<path d="M171.711 2.81396C173.698 2.03076 175.906 2.03076 177.893 2.81396C178.845 3.19423 179.716 3.75546 180.457 4.46688C181.2 5.191 181.792 6.05721 182.197 7.01453C182.624 8.04379 182.843 9.14755 182.843 10.2623C182.843 11.3771 182.624 12.4808 182.197 13.5101C181.788 14.4614 181.197 15.3224 180.457 16.0441C179.716 16.7555 178.845 17.3167 177.893 17.697C175.906 18.4802 173.698 18.4802 171.711 17.697C170.759 17.3167 169.888 16.7555 169.147 16.0441C168.407 15.3224 167.815 14.4614 167.407 13.5101C166.98 12.4808 166.761 11.3771 166.761 10.2623C166.761 9.14755 166.98 8.04379 167.407 7.01453C167.812 6.05721 168.404 5.191 169.147 4.46688C169.888 3.75546 170.759 3.19423 171.711 2.81396ZM174.799 14.7668C175.431 14.7733 176.058 14.6597 176.648 14.4322C177.204 14.229 177.713 13.9154 178.144 13.5101C178.57 13.1094 178.91 12.6261 179.144 12.0894C179.389 11.5109 179.512 10.8875 179.504 10.2589C179.51 9.63042 179.387 9.00751 179.144 8.42839C178.91 7.88963 178.57 7.40402 178.144 7.00088C177.711 6.5979 177.202 6.28459 176.648 6.0788C175.453 5.63243 174.137 5.63243 172.942 6.0788C172.392 6.28788 171.886 6.60087 171.453 7.00088C171.031 7.40623 170.694 7.89139 170.46 8.42839C170.217 9.00751 170.094 9.63042 170.099 10.2589C170.092 10.8875 170.215 11.5109 170.46 12.0894C170.694 12.6244 171.031 13.1073 171.453 13.5101C171.884 13.9124 172.39 14.2257 172.942 14.4322C173.534 14.6602 174.164 14.7738 174.799 14.7668Z" fill="white"/>
<path d="M188.182 14.7735C188.772 14.801 189.354 14.6278 189.834 14.2817C190.036 14.127 190.198 13.926 190.307 13.6955C190.416 13.465 190.468 13.2116 190.46 12.9567C190.467 12.7277 190.419 12.5003 190.321 12.2935C190.223 12.0868 190.077 11.9066 189.895 11.7682C189.451 11.4545 188.914 11.3005 188.372 11.3311C187.986 11.3228 187.601 11.3734 187.229 11.4813C186.988 11.5545 186.759 11.6626 186.549 11.8023L186.012 9.40494L188.637 6.10595H184.387V2.60205H192.935V5.10191L190.33 8.3121C190.734 8.41079 191.124 8.55755 191.493 8.74924C191.915 8.96773 192.295 9.25905 192.615 9.60986C192.979 10.0085 193.265 10.4718 193.459 10.9759C193.692 11.6188 193.802 12.3 193.785 12.984C193.79 13.6865 193.656 14.383 193.391 15.033C193.133 15.665 192.749 16.237 192.262 16.7133C191.753 17.2052 191.152 17.5906 190.494 17.8471C189.757 18.1346 188.972 18.2761 188.182 18.2637C187.599 18.2721 187.018 18.2009 186.454 18.052C185.976 17.9297 185.518 17.7388 185.094 17.4851C184.738 17.275 184.414 17.0125 184.135 16.7064C183.897 16.4498 183.708 16.151 183.578 15.8253L184.346 13.0045C184.774 13.5211 185.296 13.9521 185.883 14.2749C186.594 14.6355 187.386 14.8072 188.182 14.7735Z" fill="white"/>
<path d="M200.26 2.81414C202.244 2.0307 204.45 2.0307 206.434 2.81414C207.39 3.19271 208.263 3.75409 209.005 4.46706C209.749 5.19118 210.34 6.05739 210.746 7.01472C211.598 9.09533 211.598 11.4296 210.746 13.5103C210.34 14.4608 209.75 15.3205 209.01 16.0394C208.269 16.7583 207.394 17.3218 206.434 17.6972C204.45 18.4806 202.244 18.4806 200.26 17.6972C198.778 17.1124 197.509 16.0864 196.624 14.7569C195.739 13.4275 195.28 11.858 195.309 10.2591C195.295 9.14475 195.513 8.0398 195.948 7.01472C196.356 6.05707 196.95 5.19092 197.696 4.46706C198.435 3.75414 199.306 3.19271 200.26 2.81414ZM203.347 14.767C203.979 14.7728 204.606 14.6593 205.197 14.4323C205.751 14.2275 206.26 13.9141 206.693 13.5103C207.118 13.1112 207.457 12.6273 207.686 12.0896C207.936 11.5126 208.061 10.8885 208.053 10.2591C208.059 9.62981 207.934 9.00619 207.686 8.42858C207.457 7.88879 207.119 7.40268 206.693 7.00106C206.258 6.59949 205.75 6.28635 205.197 6.07898C204.001 5.63261 202.686 5.63261 201.49 6.07898C200.94 6.28806 200.434 6.60106 200.001 7.00106C199.578 7.40459 199.24 7.89022 199.008 8.42858C198.76 9.00619 198.635 9.62981 198.641 10.2591C198.632 10.8885 198.758 11.5126 199.008 12.0896C199.24 12.6259 199.578 13.1093 200.001 13.5103C200.433 13.9126 200.939 14.2259 201.49 14.4323C202.083 14.6611 202.713 14.7746 203.347 14.767Z" fill="white"/>
<path d="M212.908 6.1267L216.431 0H219.484L223 6.1267H219.953L217.956 2.65278L215.955 6.1267H212.908Z" fill="white"/>
<path d="M10.8669 33.2969V37.8458L14.2875 33.2969H16.1441V40.8784H14.3147V36.3295L10.9009 40.8784H9.0376V33.2969H10.8669Z" fill="white"/>
<path d="M18.0687 38.864C18.2383 38.5752 18.3905 38.2764 18.5243 37.9692C18.6796 37.607 18.8113 37.2351 18.9187 36.8559C19.0413 36.4233 19.1344 35.9829 19.1975 35.5377C19.2677 35.0353 19.3018 34.5286 19.2996 34.0213V33.27H24.7399V38.864H25.8008V42.8733H23.9987V40.8242H19.0887V42.8733H17.2866V38.864H18.0687ZM22.8902 38.864V35.2576H20.9725C20.9076 35.9838 20.7732 36.702 20.5712 37.4023C20.4251 37.9058 20.2339 38.395 20 38.864H22.8902Z" fill="white"/>
<path d="M30.7038 39.1984C31.1695 39.2007 31.6313 39.1125 32.0638 38.9389C32.4418 38.804 32.7757 38.5678 33.0295 38.2559L33.6007 39.6971C33.3285 40.1263 32.939 40.4678 32.4787 40.6806C31.9126 40.9612 31.2872 41.0995 30.6561 41.0836C30.1088 41.0875 29.5652 40.9927 29.0512 40.8035C28.5754 40.623 28.139 40.3517 27.766 40.0044C27.3998 39.6512 27.1103 39.2256 26.9159 38.7545C26.5199 37.7282 26.5078 36.5925 26.8819 35.5579C27.0594 35.0898 27.3223 34.6589 27.6571 34.2875C27.9933 33.9116 28.4031 33.6093 28.8608 33.3996C29.3659 33.1751 29.9135 33.0633 30.4657 33.0717C30.9902 33.0643 31.5092 33.1789 31.9822 33.4064C32.4263 33.6162 32.8223 33.9162 33.1451 34.2875C33.4626 34.6642 33.7112 35.0943 33.8796 35.5579C34.0564 36.0437 34.1462 36.557 34.1448 37.0743C34.1448 37.1835 34.1448 37.2997 34.1448 37.4226C34.1531 37.5294 34.1531 37.6368 34.1448 37.7436H28.5208C28.5515 37.9702 28.6337 38.1866 28.761 38.3761C28.8884 38.5657 29.0575 38.7231 29.2553 38.8364C29.7056 39.0809 30.2125 39.2011 30.7242 39.1848L30.7038 39.1984ZM32.2611 36.2068C32.239 36.0197 32.1749 35.8401 32.0736 35.6816C31.9722 35.523 31.8364 35.3896 31.6762 35.2916C31.3186 35.0716 30.9053 34.9601 30.4861 34.9705C30.0546 34.9648 29.6295 35.0757 29.2553 35.2916C29.0808 35.3831 28.9291 35.5129 28.8114 35.6714C28.6937 35.8298 28.613 36.0128 28.5752 36.2068H32.2611Z" fill="white"/>
<path d="M43.1079 35.4482C43.431 36.1984 43.5233 37.0285 43.373 37.8318C43.2228 38.6351 42.8368 39.3749 42.2647 39.9562C41.9158 40.3062 41.5023 40.5846 41.0474 40.7758C40.5948 40.974 40.1063 41.0763 39.6125 41.0763C39.121 41.0899 38.6329 40.9919 38.1844 40.7895C37.8461 40.6531 37.5683 40.3983 37.4024 40.0723V43.9997H35.5391V33.2899H37.3616V34.0822C37.5333 33.7556 37.8154 33.5013 38.1572 33.365C38.6133 33.164 39.1078 33.0661 39.6057 33.0781C40.1049 33.0769 40.5994 33.1744 41.061 33.365C41.5194 33.5535 41.9356 33.8322 42.2851 34.1846C42.6443 34.5476 42.9306 34.9766 43.1283 35.4482H43.1079ZM41.4078 37.8866C41.5177 37.6276 41.5733 37.3486 41.571 37.067C41.5742 36.7897 41.5186 36.515 41.4078 36.261C41.303 36.0207 41.1503 35.8045 40.959 35.6258C40.7621 35.4447 40.5308 35.3053 40.279 35.216C39.9935 35.1121 39.6917 35.0611 39.3881 35.0657C38.9561 35.057 38.5286 35.1556 38.1436 35.3526C37.8277 35.4979 37.5742 35.7524 37.4296 36.0698V38.0847C37.5742 38.402 37.8277 38.6566 38.1436 38.8019C38.5286 38.9989 38.9561 39.0974 39.3881 39.0887C39.6914 39.09 39.9927 39.0392 40.279 38.9385C40.5308 38.8492 40.7621 38.7098 40.959 38.5287C41.1519 38.3488 41.3049 38.13 41.4078 37.8866Z" fill="white"/>
<path d="M44.7128 34.4241C44.8557 34.206 45.0325 34.0123 45.2364 33.8504C45.4467 33.6862 45.6749 33.5465 45.9165 33.4337C46.1779 33.3168 46.4517 33.2297 46.7325 33.1742C47.0193 33.1173 47.3107 33.0876 47.603 33.0854C48.0644 33.0786 48.5239 33.1478 48.9631 33.2903C49.3476 33.4175 49.7034 33.6194 50.0103 33.8845C50.3067 34.1443 50.5394 34.4692 50.6904 34.834C50.8672 35.2437 50.9597 35.6851 50.9624 36.1317V40.9128H49.1603V40.2298C48.9512 40.5356 48.6477 40.7636 48.2966 40.8787C47.5572 41.1638 46.7418 41.1807 45.9913 40.9265C45.675 40.8112 45.3806 40.6426 45.1208 40.4279C44.8697 40.2177 44.6717 39.9509 44.5428 39.6492C44.403 39.3214 44.3335 38.9677 44.3388 38.6111C44.3321 38.2419 44.4137 37.8765 44.5768 37.5455C44.7444 37.2395 44.9765 36.9737 45.2568 36.7669C45.5413 36.5527 45.8614 36.3909 46.2021 36.2888C46.5615 36.1795 46.935 36.1242 47.3106 36.1249C47.7164 36.1114 48.1214 36.1692 48.5074 36.2956C48.7415 36.3604 48.9547 36.4851 49.1263 36.6576V36.4527C49.1362 36.2545 49.103 36.0565 49.029 35.8725C48.955 35.6885 48.842 35.5229 48.6978 35.3872C48.337 35.1023 47.8842 34.9613 47.4261 34.991C46.9799 34.9851 46.5381 35.0808 46.1341 35.2711C45.7798 35.4248 45.4657 35.6586 45.216 35.9541L44.7128 34.4241ZM49.0787 38.1534C48.9544 37.9782 48.7746 37.8506 48.5686 37.7914C48.2772 37.6828 47.9682 37.6296 47.6574 37.6343C47.2774 37.6098 46.8981 37.6926 46.5625 37.8734C46.4506 37.9316 46.357 38.0199 46.2921 38.1285C46.2273 38.237 46.1938 38.3615 46.1953 38.4881C46.1944 38.6154 46.2289 38.7404 46.295 38.849C46.3611 38.9577 46.4561 39.0456 46.5693 39.1028C46.901 39.2729 47.272 39.3507 47.6438 39.3282C47.9572 39.3338 48.2682 39.2709 48.555 39.1438C48.7758 39.0582 48.9607 38.8991 49.0787 38.693V38.1534Z" fill="white"/>
<path d="M59.4835 33.2969H61.2856L62.4757 40.8784H60.626L59.9663 36.8691L58.2118 40.8784H56.7157L54.9544 36.8691L54.2811 40.8784H52.3906L53.5671 33.2969H55.2332L57.3617 38.1395L59.4835 33.2969Z" fill="white"/>
<path d="M65.8147 33.2969V37.8458L69.2285 33.2969H71.0918V40.8784H69.2625V36.3295L65.8487 40.8784H63.9854V33.2969H65.8147Z" fill="white"/>
<path d="M82.9246 39.7246C82.6548 40.1416 82.2728 40.4732 81.8229 40.6809C81.2731 40.9594 80.6636 41.0978 80.048 41.0838C79.5351 41.0841 79.027 40.9843 78.5519 40.7901C77.5944 40.4022 76.8274 39.6514 76.4165 38.7001C75.9907 37.6609 75.9907 36.4949 76.4165 35.4558C76.6232 34.9823 76.9187 34.5533 77.287 34.1922C77.6515 33.8388 78.0812 33.5604 78.5519 33.3725C79.0274 33.1805 79.5355 33.0831 80.048 33.0857C80.6572 33.07 81.2606 33.2086 81.8025 33.4886C82.2389 33.694 82.6072 34.0212 82.8634 34.4312L82.3397 35.9885C82.1031 35.7259 81.8193 35.5104 81.5033 35.3533C81.1164 35.1622 80.6899 35.0662 80.2588 35.0733C79.6605 35.0438 79.0731 35.2412 78.6131 35.6265C78.4118 35.8082 78.2527 36.032 78.147 36.2822C78.0412 36.5324 77.9914 36.8029 78.0011 37.0745C77.9913 37.3482 78.0409 37.6207 78.1466 37.8731C78.2523 38.1255 78.4115 38.3518 78.6131 38.5362C79.0721 38.9239 79.6596 39.1239 80.2588 39.0962C80.6958 39.1034 81.1278 39.0026 81.5169 38.8026C81.8378 38.6265 82.1255 38.3954 82.3669 38.1195L82.9246 39.7246Z" fill="white"/>
<path d="M90.174 35.2845H87.8482V40.8784H85.9849V35.2845H83.6523V33.2969H90.174V35.2845Z" fill="white"/>
<path d="M91.2888 34.4245C91.4338 34.2079 91.6103 34.0145 91.8125 33.8507C92.0228 33.6866 92.251 33.5468 92.4925 33.4341C92.7547 33.3191 93.0283 33.2321 93.3086 33.1746C93.5953 33.1176 93.8868 33.0879 94.179 33.0858C94.6404 33.0802 95.0997 33.1494 95.5391 33.2907C95.9222 33.421 96.2775 33.6226 96.5864 33.8849C96.8833 34.1441 97.1161 34.4691 97.2665 34.8343C97.4331 35.2413 97.5142 35.6784 97.5045 36.1184V40.8995H95.7024V40.2165C95.4948 40.5237 95.1907 40.7522 94.8387 40.8654C94.1013 41.1489 93.2886 41.1658 92.5402 40.9132C92.2225 40.801 91.9276 40.6321 91.6697 40.4146C91.4152 40.2061 91.2145 39.939 91.0848 39.6359C90.945 39.3081 90.8755 38.9543 90.8808 38.5977C90.8733 38.2277 90.9574 37.8615 91.1256 37.5322C91.2911 37.2246 91.5235 36.9584 91.8057 36.7536C92.0886 36.5369 92.4091 36.3747 92.751 36.2755C93.1079 36.1657 93.4793 36.1105 93.8526 36.1115C94.2585 36.0975 94.6636 36.1553 95.0495 36.2823C95.2847 36.3491 95.4997 36.4735 95.6751 36.6443V36.4394C95.6842 36.2407 95.65 36.0423 95.5748 35.8583C95.4996 35.6743 95.3853 35.509 95.2399 35.3739C94.8824 35.0877 94.4311 34.9464 93.975 34.9777C93.5266 34.9719 93.0827 35.0676 92.6761 35.2578C92.3219 35.4115 92.0077 35.6452 91.7581 35.9408L91.2888 34.4245ZM95.6616 38.1538C95.5326 37.9803 95.3513 37.8533 95.1447 37.7918C94.8555 37.6837 94.5488 37.6304 94.2403 37.6347C93.858 37.6089 93.4762 37.6917 93.1386 37.8737C93.0267 37.932 92.9331 38.0203 92.8682 38.1288C92.8034 38.2374 92.7698 38.3619 92.7714 38.4885C92.7705 38.6158 92.805 38.7408 92.8711 38.8494C92.9372 38.958 93.0322 39.0459 93.1454 39.1032C93.4564 39.2446 93.7927 39.3211 94.1341 39.3282C94.4754 39.3352 94.8146 39.2726 95.1311 39.1442C95.3536 39.0584 95.5406 38.8995 95.6616 38.6934V38.1538Z" fill="white"/>
<path d="M101.211 33.2969V35.988H104.523V33.2969H106.386V40.8784H104.523V37.9756H101.211V40.8784H99.3477V33.2969H101.211Z" fill="white"/>
<path d="M115.757 37.0949C115.763 37.6427 115.651 38.1853 115.431 38.6863C115.226 39.1607 114.93 39.59 114.56 39.9499C114.192 40.3027 113.76 40.583 113.289 40.7763C112.806 40.9792 112.288 41.0837 111.765 41.0837C111.242 41.0837 110.725 40.9792 110.242 40.7763C109.774 40.581 109.345 40.3009 108.977 39.9499C108.402 39.3839 108.011 38.6561 107.855 37.8623C107.7 37.0686 107.787 36.2461 108.107 35.5034C108.311 35.0245 108.607 34.5905 108.977 34.2262C109.344 33.8711 109.773 33.5864 110.242 33.3861C111.218 32.9852 112.312 32.9852 113.289 33.3861C113.761 33.5847 114.192 33.8695 114.56 34.2262C114.929 34.5925 115.224 35.026 115.431 35.5034C115.651 36.0046 115.762 36.5471 115.757 37.0949ZM109.82 36.2752C109.711 36.5343 109.655 36.8133 109.657 37.0949C109.654 37.3721 109.71 37.6469 109.82 37.9008C109.92 38.1421 110.071 38.3588 110.263 38.536C110.459 38.7179 110.69 38.8574 110.943 38.9459C111.205 39.0481 111.484 39.0991 111.765 39.0961C112.047 39.0998 112.326 39.0487 112.588 38.9459C112.835 38.8552 113.061 38.7161 113.254 38.5367C113.447 38.3573 113.602 38.1411 113.71 37.9008C113.823 37.6473 113.881 37.3726 113.88 37.0949C113.88 36.8128 113.823 36.5338 113.71 36.2752C113.603 36.0329 113.448 35.8146 113.255 35.6332C113.057 35.4532 112.826 35.314 112.575 35.2234C112.312 35.1238 112.033 35.0729 111.752 35.0731C111.471 35.0735 111.192 35.1244 110.929 35.2234C110.677 35.3118 110.445 35.4513 110.249 35.6332C110.056 35.8116 109.905 36.031 109.807 36.2752" fill="white"/>
<path d="M120.048 33.2905C120.409 33.2891 120.767 33.3351 121.116 33.4271C121.427 33.5053 121.72 33.6421 121.98 33.8301C122.223 34.0114 122.422 34.2447 122.564 34.5131C122.708 34.8086 122.78 35.1338 122.775 35.4625C122.784 35.7294 122.736 35.9951 122.632 36.2412C122.531 36.4549 122.39 36.6473 122.218 36.8081C122.491 36.9839 122.723 37.2169 122.898 37.4911C123.091 37.8115 123.186 38.1823 123.17 38.5566C123.177 38.9002 123.1 39.2403 122.945 39.547C122.793 39.8261 122.585 40.0703 122.333 40.2642C122.068 40.4676 121.769 40.6204 121.449 40.715C121.105 40.8169 120.747 40.8675 120.388 40.8652H117.131V33.2837L120.048 33.2905ZM118.967 35.0322V36.3095H120.286C120.383 36.3154 120.48 36.3015 120.571 36.2686C120.662 36.2358 120.746 36.1846 120.817 36.1182C120.876 36.0618 120.923 35.994 120.956 35.919C120.989 35.8439 121.006 35.763 121.007 35.6811C121.003 35.51 120.935 35.3467 120.817 35.2235C120.744 35.1564 120.658 35.1049 120.564 35.072C120.471 35.0391 120.372 35.0256 120.273 35.0322H118.967ZM118.967 37.8258V39.1372H120.681C120.775 39.1422 120.869 39.1285 120.957 39.0968C121.046 39.0652 121.128 39.0162 121.198 38.9528C121.321 38.8245 121.389 38.6529 121.388 38.4747C121.382 38.3059 121.314 38.1453 121.198 38.0239C121.127 37.9566 121.044 37.9044 120.952 37.8704C120.861 37.8363 120.764 37.8212 120.667 37.8258H118.967Z" fill="white"/>
<path d="M130.031 33.2901V40.8717H128.168V38.6245H127.549L126.026 40.8717H123.87L125.591 38.3445C125.17 38.1354 124.815 37.814 124.564 37.4156C124.309 36.9844 124.182 36.4893 124.197 35.9881C124.191 35.5992 124.265 35.2133 124.414 34.8543C124.554 34.5319 124.76 34.2431 125.019 34.0073C125.281 33.7686 125.589 33.5871 125.924 33.4745C126.287 33.3495 126.669 33.2872 127.053 33.2901H130.031ZM126.91 35.1753C126.791 35.1681 126.672 35.1863 126.561 35.2287C126.449 35.2711 126.348 35.3367 126.264 35.4212C126.188 35.4972 126.128 35.5878 126.087 35.6874C126.046 35.7871 126.025 35.8939 126.026 36.0017C126.02 36.1095 126.04 36.217 126.084 36.3156C126.128 36.4141 126.194 36.5008 126.277 36.5687C126.455 36.7157 126.68 36.7912 126.91 36.7804H128.168V35.1753H126.91Z" fill="white"/>
<path d="M137.763 35.2845H135.438V40.8784H133.574V35.2845H131.242V33.2969H137.763V35.2845Z" fill="white"/>
<path d="M145.257 39.7245C144.987 40.1415 144.605 40.473 144.155 40.6807C143.608 40.9584 143.001 41.0968 142.387 41.0837C141.872 41.0847 141.362 40.9849 140.884 40.79C139.927 40.4021 139.16 39.6513 138.749 38.7C138.323 37.6608 138.323 36.4948 138.749 35.4556C138.956 34.9822 139.251 34.5532 139.62 34.192C139.984 33.8387 140.414 33.5603 140.884 33.3724C141.362 33.1797 141.873 33.0823 142.387 33.0855C142.994 33.0707 143.595 33.2093 144.135 33.4885C144.571 33.6939 144.94 34.0211 145.196 34.4311L144.672 35.9884C144.436 35.7258 144.152 35.5103 143.836 35.3532C143.449 35.1621 143.022 35.0661 142.591 35.0731C141.993 35.0436 141.406 35.2411 140.946 35.6264C140.744 35.8081 140.585 36.0319 140.479 36.2821C140.374 36.5323 140.324 36.8028 140.334 37.0744C140.324 37.3481 140.373 37.6206 140.479 37.873C140.585 38.1254 140.744 38.3517 140.946 38.536C141.405 38.9238 141.992 39.1237 142.591 39.0961C143.028 39.1033 143.46 39.0024 143.849 38.8024C144.17 38.6264 144.458 38.3952 144.699 38.1194L145.257 39.7245Z" fill="white"/>
<path d="M152.133 33.2901V40.8717H150.249V38.6245H149.63L148.107 40.8717H145.958L147.672 38.3445C147.251 38.1354 146.896 37.814 146.645 37.4156C146.39 36.9844 146.263 36.4893 146.278 35.9881C146.272 35.5992 146.346 35.2133 146.495 34.8543C146.635 34.5319 146.841 34.2431 147.1 34.0073C147.363 33.77 147.671 33.5887 148.005 33.4745C148.368 33.3495 148.75 33.2872 149.134 33.2901H152.133ZM149.011 35.1753C148.893 35.1681 148.774 35.1863 148.662 35.2287C148.551 35.2711 148.45 35.3367 148.365 35.4212C148.289 35.4972 148.229 35.5878 148.188 35.6874C148.147 35.7871 148.127 35.8939 148.127 36.0017C148.122 36.1095 148.142 36.217 148.185 36.3156C148.229 36.4141 148.295 36.5008 148.379 36.5687C148.557 36.7146 148.782 36.7899 149.011 36.7804H150.249V35.1753H149.011Z" fill="white"/>
<path d="M4.93042 33.3037L8.05862 40.8852L5.81448 40.8784L4.03956 36.4319L2.26465 40.8784H0.0205078L3.14871 33.2969L4.93042 33.3037Z" fill="white"/>
</svg>
