<svg width="242" height="49" viewBox="0 0 242 49" fill="none" xmlns="http://www.w3.org/2000/svg">
<path d="M6.75378 12.267L13.5532 5.52072L16.2181 8.17045L4.02029 20.2672C3.96268 19.8517 3.93402 19.4327 3.93451 19.0133C3.93128 17.7597 4.17881 16.5179 4.66275 15.3598C5.14669 14.2018 5.85743 13.1506 6.75378 12.267ZM21.5478 13.7195L8.12053 27.0759L6.97681 25.9809L6.9425 25.9525L6.74234 25.7596C6.29112 25.3084 5.88333 24.8165 5.52428 24.2901L18.9859 10.928L20.3355 12.267C20.783 12.7108 21.1853 13.1973 21.5364 13.7195H21.5478ZM20.3412 25.7483L13.5532 32.5059L10.8597 29.8392L23.0575 17.731C23.2589 19.1847 23.1184 20.6649 22.6472 22.0558C22.1759 23.4466 21.3867 24.7104 20.3412 25.7483ZM4.20901 28.7611L13.5532 38.0323L23.0289 28.6079L23.6008 28.0405C25.8237 25.5882 27.0611 22.411 27.078 19.1129C27.0949 15.8147 25.89 12.6252 23.6923 10.1506L13.5532 0L3.96882 9.50382C1.43007 12.0253 0.00402832 15.4436 0.00402832 19.0076C0.00402832 22.5717 1.43007 25.99 3.96882 28.5115L4.22616 28.7611" fill="#218A3D"/>
<path d="M26.8317 27.5811C26.3155 29.7738 25.2493 31.8016 23.7322 33.4763L23.1604 34.0437L13.6846 43.4738L4.34042 34.1969C4.25037 34.1181 4.16448 34.0348 4.08309 33.9472C2.30472 32.1925 1.06015 29.9765 0.491803 27.5527H0.337398C-0.0568843 29.6913 0.077988 31.8929 0.730426 33.9683C1.38286 36.0437 2.53336 37.931 4.08309 39.468C4.16445 39.5538 4.25035 39.6352 4.34042 39.7119L13.6846 48.9888L23.1604 39.5644L23.7322 38.997C25.1197 37.4685 26.1352 35.6444 26.7003 33.6652C27.2654 31.686 27.3652 29.6046 26.9918 27.5811H26.8317Z" fill="#218A3D"/>
<path d="M42.7409 6.70068H42.0604V42.2989H42.7409V6.70068Z" fill="#001B71"/>
<path d="M66.3473 8.38037V21.0956H63.1906V11.711H57.6379V21.0956H54.4755V8.38037H66.3473Z" fill="#001B71"/>
<path d="M82.2279 12.0059C82.7701 13.2646 82.9237 14.6547 82.6692 16C82.4147 17.3454 81.7635 18.5856 80.7982 19.5636C80.2066 20.153 79.5056 20.6231 78.7338 20.948C77.962 21.275 77.1312 21.4429 76.292 21.4416C75.4573 21.4653 74.6282 21.3004 73.8673 20.9593C73.2944 20.7292 72.8223 20.305 72.5348 19.7622V26.3553H69.3724V8.38027H72.4376V9.71364C72.7266 9.16355 73.2088 8.73762 73.7929 8.51644C74.5625 8.17706 75.3986 8.01229 76.2405 8.03415C77.0918 8.0307 77.9353 8.19462 78.7224 8.51644C79.4987 8.83143 80.2043 9.29622 80.7982 9.88385C81.4063 10.4947 81.8915 11.2149 82.2279 12.0059ZM79.3057 16.0968C79.492 15.6629 79.5855 15.1953 79.5802 14.7237C79.586 14.2575 79.4924 13.7954 79.3057 13.3677C79.1309 12.9644 78.8716 12.6027 78.5451 12.3066C78.2058 11.9992 77.8069 11.7637 77.3728 11.6144C76.8902 11.4439 76.381 11.3594 75.8688 11.3648C75.1345 11.3529 74.4083 11.5184 73.7529 11.847C73.2178 12.0919 72.7867 12.5157 72.5348 13.0442V16.4486C72.7834 16.9794 73.2156 17.4042 73.7529 17.6458C74.4074 17.977 75.1342 18.1427 75.8688 18.1281C76.3807 18.1353 76.8898 18.0527 77.3728 17.8841C77.8058 17.7326 78.2043 17.4973 78.5451 17.1919C78.8731 16.8926 79.1325 16.5269 79.3057 16.1195" fill="#001B71"/>
<path d="M88.1123 8.38037V16.0118L93.911 8.38037H97.0734V21.0956H93.9625V13.4642L88.1638 21.0956H85.0014V8.38037H88.1123Z" fill="#001B71"/>
<path d="M112.857 14.7467C112.86 15.6714 112.665 16.5862 112.285 17.4305C111.933 18.2224 111.43 18.9393 110.804 19.5412C110.179 20.1329 109.45 20.6059 108.654 20.937C106.993 21.6087 105.133 21.6087 103.472 20.937C102.676 20.6059 101.947 20.1329 101.322 19.5412C100.696 18.9393 100.193 18.2224 99.8412 17.4305C99.4789 16.5843 99.2922 15.6745 99.2922 14.7552C99.2922 13.8359 99.4789 12.9261 99.8412 12.0799C100.543 10.477 101.845 9.20746 103.472 8.53942C105.133 7.86772 106.993 7.86772 108.654 8.53942C110.281 9.20746 111.583 10.477 112.285 12.0799C112.662 12.9193 112.857 13.8278 112.857 14.7467ZM102.775 13.3793C102.589 13.8114 102.496 14.277 102.5 14.7467C102.495 15.2147 102.588 15.6787 102.775 16.1084C102.951 16.5108 103.21 16.8722 103.535 17.1695C103.867 17.4725 104.256 17.7077 104.679 17.8617C105.129 18.027 105.606 18.1096 106.086 18.1057C106.562 18.1102 107.035 18.0275 107.481 17.8617C107.903 17.7043 108.291 17.4694 108.625 17.1695C108.948 16.8681 109.21 16.5079 109.397 16.1084C109.59 15.6803 109.688 15.2158 109.683 14.7467C109.687 14.2759 109.589 13.8098 109.397 13.3793C109.213 12.9748 108.951 12.6103 108.625 12.3069C108.292 12.0049 107.904 11.7698 107.481 11.6147C107.036 11.4471 106.562 11.3625 106.086 11.365C105.606 11.3629 105.129 11.4474 104.679 11.6147C104.255 11.767 103.866 12.0024 103.535 12.3069C103.207 12.6062 102.948 12.9719 102.775 13.3793Z" fill="#001B71"/>
<path d="M127.897 12.0062C128.439 13.2649 128.592 14.655 128.338 16.0003C128.083 17.3457 127.432 18.5859 126.467 19.5639C125.874 20.1547 125.171 20.625 124.397 20.9483C123.627 21.2758 122.798 21.4438 121.961 21.442C121.124 21.4657 120.293 21.3008 119.53 20.9597C118.962 20.7339 118.492 20.3159 118.204 19.7795V26.3726H115.058V8.38059H118.118V9.71396C118.41 9.16646 118.891 8.74152 119.473 8.51675C120.245 8.17837 121.083 8.01366 121.926 8.03447C122.776 8.03102 123.617 8.19495 124.403 8.51675C125.182 8.83 125.889 9.29496 126.484 9.88417C127.09 10.4965 127.575 11.2163 127.914 12.0062H127.897ZM124.986 16.0971C125.172 15.6632 125.266 15.1956 125.26 14.724C125.266 14.2579 125.173 13.7957 124.986 13.368C124.811 12.9663 124.554 12.6049 124.231 12.3069C123.892 11.9995 123.493 11.764 123.059 11.6147C122.576 11.4451 122.067 11.3606 121.555 11.3651C120.82 11.3519 120.094 11.5175 119.439 11.8473C118.901 12.0889 118.469 12.5137 118.221 13.0446V16.4489C118.466 16.9821 118.899 17.408 119.439 17.6461C120.567 18.1925 121.867 18.2781 123.059 17.8844C123.485 17.7234 123.876 17.4805 124.208 17.1695C124.533 16.8684 124.79 16.5031 124.963 16.0971" fill="#001B71"/>
<path d="M133.775 8.38037V16.0118L139.574 8.38037H142.731V21.0956H139.62V13.4642L133.821 21.0956H130.659V8.38037H133.775Z" fill="#001B71"/>
<path d="M155.912 11.711H151.955V21.0956H148.792V11.711H144.835V8.38037H155.912V11.711Z" fill="#001B71"/>
<path d="M164.307 18.2812C165.09 18.2842 165.867 18.1378 166.594 17.85C167.237 17.6303 167.805 17.2373 168.236 16.7152L169.208 19.138C168.742 19.8549 168.082 20.4272 167.304 20.7891C166.34 21.2572 165.277 21.4869 164.204 21.4586C163.275 21.4664 162.353 21.3069 161.482 20.9877C160.672 20.6952 159.93 20.2414 159.303 19.6543C158.676 19.0644 158.183 18.3487 157.856 17.5549C157.499 16.6676 157.322 15.7188 157.336 14.7634C157.331 13.8876 157.488 13.0183 157.799 12.1988C158.094 11.4078 158.54 10.6813 159.115 10.0597C159.698 9.43712 160.402 8.93737 161.185 8.59014C162.043 8.22019 162.971 8.03641 163.907 8.05111C164.799 8.04043 165.682 8.23462 166.486 8.6185C167.235 8.97309 167.903 9.47723 168.447 10.0994C168.996 10.7274 169.422 11.4507 169.705 12.2328C170.005 13.0472 170.158 13.9076 170.157 14.7747C170.157 14.9563 170.157 15.1549 170.157 15.3421C170.154 15.5196 170.133 15.6964 170.094 15.8698H160.573C160.623 16.251 160.762 16.6155 160.977 16.9353C161.192 17.255 161.478 17.5214 161.814 17.7138C162.581 18.1158 163.44 18.3114 164.307 18.2812ZM166.92 13.2938C166.882 12.9791 166.772 12.6769 166.6 12.4098C166.428 12.1427 166.197 11.9174 165.925 11.7505C165.318 11.3831 164.617 11.1979 163.907 11.2172C163.173 11.2049 162.45 11.3892 161.814 11.7505C161.523 11.9086 161.272 12.1293 161.079 12.3964C160.886 12.6635 160.756 12.9702 160.699 13.2938H166.92Z" fill="#001B71"/>
<path d="M182.652 11.711H178.695V21.0956H175.533V11.711H171.575V8.38037H182.652V11.711Z" fill="#001B71"/>
<path d="M188.828 10.9791C188.535 10.9776 188.243 11.0256 187.965 11.1209C187.711 11.2136 187.471 11.3396 187.25 11.4954C187.041 11.6525 186.849 11.8313 186.678 12.0288C186.507 12.229 186.354 12.4435 186.221 12.6699L185.077 10.7521C185.176 10.3773 185.342 10.0235 185.569 9.70812C185.807 9.38084 186.097 9.09351 186.427 8.85703C186.787 8.60792 187.184 8.41646 187.605 8.28964C188.067 8.14569 188.55 8.07485 189.034 8.07971C189.641 8.06677 190.245 8.16883 190.813 8.38042C191.289 8.55825 191.721 8.83578 192.079 9.19414C192.437 9.55251 192.713 9.98327 192.889 10.4571C193.069 10.9478 193.16 11.4666 193.157 11.989C193.16 12.4178 193.106 12.845 192.997 13.26C192.885 13.6554 192.725 14.0363 192.523 14.3948C192.293 14.7925 192.033 15.1719 191.745 15.5296C191.428 15.9078 191.068 16.322 190.664 16.7722L189.4 18.1793H193.403V21.0957H185.169V18.8261L188.84 14.8544C189.103 14.5707 189.332 14.3267 189.52 14.1111C189.683 13.93 189.834 13.7386 189.972 13.538C190.09 13.3608 190.186 13.1703 190.258 12.9706C190.327 12.7738 190.36 12.5662 190.355 12.3578C190.359 12.1777 190.323 11.999 190.251 11.8337C190.179 11.6683 190.072 11.5201 189.938 11.399C189.623 11.1251 189.212 10.9845 188.794 11.0075" fill="#EA0029"/>
<path d="M198.87 8.55631C200.541 7.90571 202.398 7.90571 204.069 8.55631C204.869 8.87221 205.601 9.33843 206.224 9.92941C206.85 10.5309 207.348 11.2505 207.688 12.0458C208.047 12.9008 208.231 13.8177 208.231 14.7437C208.231 15.6698 208.047 16.5867 207.688 17.4417C207.345 18.2319 206.847 18.9472 206.224 19.5467C205.601 20.1377 204.869 20.6039 204.069 20.9198C202.398 21.5704 200.541 21.5704 198.87 20.9198C198.069 20.6039 197.337 20.1377 196.714 19.5467C196.092 18.9472 195.594 18.2319 195.25 17.4417C194.892 16.5867 194.707 15.6698 194.707 14.7437C194.707 13.8177 194.892 12.9008 195.25 12.0458C195.591 11.2505 196.089 10.5309 196.714 9.92941C197.337 9.33843 198.069 8.87221 198.87 8.55631ZM201.467 18.4857C201.998 18.491 202.526 18.3967 203.022 18.2077C203.489 18.0389 203.917 17.7784 204.28 17.4417C204.638 17.1089 204.924 16.7073 205.121 16.2615C205.327 15.7809 205.43 15.2631 205.424 14.7409C205.428 14.2188 205.325 13.7014 205.121 13.2203C204.924 12.7727 204.638 12.3693 204.28 12.0344C203.915 11.6997 203.488 11.4394 203.022 11.2684C202.017 10.8976 200.911 10.8976 199.905 11.2684C199.442 11.4421 199.017 11.7021 198.653 12.0344C198.299 12.3712 198.015 12.7742 197.818 13.2203C197.614 13.7014 197.511 14.2188 197.515 14.7409C197.509 15.2631 197.612 15.7809 197.818 16.2615C198.015 16.7059 198.299 17.1071 198.653 17.4417C199.016 17.7759 199.441 18.0362 199.905 18.2077C200.403 18.3971 200.933 18.4915 201.467 18.4857Z" fill="#EA0029"/>
<path d="M212.721 18.4913C213.217 18.5142 213.707 18.3703 214.11 18.0828C214.28 17.9543 214.417 17.7873 214.508 17.5958C214.6 17.4043 214.644 17.1939 214.636 16.982C214.643 16.7918 214.603 16.6029 214.52 16.4312C214.437 16.2594 214.315 16.1098 214.162 15.9948C213.788 15.7342 213.337 15.6063 212.881 15.6316C212.556 15.6248 212.232 15.6668 211.92 15.7565C211.717 15.8172 211.525 15.9071 211.348 16.0231L210.896 14.0316L213.104 11.2911H209.53V8.38037H216.718V10.457L214.528 13.1238C214.867 13.2057 215.195 13.3277 215.506 13.4869C215.86 13.6684 216.179 13.9104 216.449 14.2018C216.755 14.5329 216.995 14.9178 217.158 15.3366C217.354 15.8707 217.447 16.4365 217.433 17.0047C217.437 17.5883 217.324 18.1669 217.101 18.7069C216.885 19.2319 216.562 19.707 216.152 20.1027C215.724 20.5114 215.219 20.8315 214.665 21.0446C214.046 21.2834 213.385 21.4009 212.721 21.3907C212.231 21.3977 211.742 21.3385 211.268 21.2148C210.866 21.1132 210.481 20.9546 210.124 20.7439C209.825 20.5693 209.553 20.3513 209.318 20.097C209.118 19.8838 208.959 19.6356 208.849 19.3651L209.495 17.0218C209.856 17.4509 210.294 17.8089 210.788 18.0771C211.386 18.3767 212.051 18.5193 212.721 18.4913Z" fill="#EA0029"/>
<path d="M222.877 8.55646C224.546 7.90566 226.401 7.90566 228.069 8.55646C228.873 8.87095 229.607 9.33729 230.231 9.92956C230.856 10.5311 231.354 11.2507 231.695 12.0459C232.412 13.7743 232.412 15.7134 231.695 17.4418C231.354 18.2314 230.857 18.9456 230.235 19.5428C229.612 20.14 228.876 20.6081 228.069 20.9199C226.401 21.5708 224.546 21.5708 222.877 20.9199C221.631 20.4341 220.564 19.5819 219.82 18.4775C219.076 17.3731 218.69 16.0693 218.714 14.741C218.702 13.8154 218.885 12.8975 219.251 12.0459C219.594 11.2504 220.094 10.5309 220.721 9.92956C221.343 9.33734 222.075 8.87095 222.877 8.55646ZM225.473 18.4858C226.005 18.4906 226.532 18.3963 227.029 18.2078C227.495 18.0377 227.923 17.7773 228.287 17.4418C228.645 17.1103 228.929 16.7083 229.122 16.2616C229.332 15.7823 229.438 15.2639 229.431 14.741C229.436 14.2183 229.331 13.7003 229.122 13.2204C228.929 12.772 228.645 12.3682 228.287 12.0346C227.921 11.701 227.494 11.4409 227.029 11.2686C226.023 10.8978 224.917 10.8978 223.912 11.2686C223.449 11.4423 223.024 11.7023 222.66 12.0346C222.303 12.3698 222.019 12.7732 221.825 13.2204C221.616 13.7003 221.51 14.2183 221.516 14.741C221.509 15.2639 221.614 15.7823 221.825 16.2616C222.019 16.7072 222.303 17.1088 222.66 17.4418C223.023 17.7761 223.448 18.0363 223.912 18.2078C224.41 18.3978 224.94 18.4922 225.473 18.4858Z" fill="#EA0029"/>
<path d="M233.514 11.3083L236.476 6.21875H239.044L242 11.3083H239.438L237.758 8.42244L236.076 11.3083H233.514Z" fill="#EA0029"/>
<path d="M63.6138 33.8789V37.6577L66.4903 33.8789H68.0514V40.177H66.5131V36.3981L63.6424 40.177H62.0755V33.8789H63.6138Z" fill="#EA0029"/>
<path d="M69.6698 38.5034C69.8124 38.2635 69.9404 38.0153 70.0529 37.7601C70.1835 37.4592 70.2943 37.1503 70.3846 36.8353C70.4877 36.4759 70.566 36.1101 70.6191 35.7402C70.678 35.3229 70.7067 34.9019 70.7049 34.4806V33.8564H75.2797V38.5034H76.1718V41.834H74.6564V40.1318H70.5276V41.834H69.0121V38.5034H69.6698ZM73.7243 38.5034V35.5076H72.1116C72.0571 36.1108 71.9441 36.7074 71.7742 37.2892C71.6513 37.7074 71.4905 38.1138 71.2939 38.5034H73.7243Z" fill="#EA0029"/>
<path d="M80.295 38.7813C80.6867 38.7831 81.075 38.7099 81.4387 38.5657C81.7565 38.4536 82.0373 38.2574 82.2507 37.9983L82.7311 39.1955C82.5022 39.5521 82.1746 39.8357 81.7875 40.0125C81.3115 40.2456 80.7856 40.3605 80.2549 40.3473C79.7947 40.3506 79.3375 40.2718 78.9054 40.1147C78.5052 39.9647 78.1382 39.7393 77.8245 39.4508C77.5166 39.1574 77.2732 38.8038 77.1097 38.4125C76.7767 37.5599 76.7665 36.6165 77.0811 35.7571C77.2304 35.3682 77.4515 35.0103 77.733 34.7017C78.0157 34.3894 78.3603 34.1383 78.7452 33.9641C79.17 33.7777 79.6304 33.6847 80.0948 33.6918C80.5358 33.6856 80.9723 33.7808 81.3701 33.9698C81.7435 34.1441 82.0765 34.3933 82.348 34.7017C82.6149 35.0147 82.824 35.3719 82.9656 35.7571C83.1143 36.1606 83.1898 36.5871 83.1886 37.0167C83.1886 37.1075 83.1886 37.204 83.1886 37.3061C83.1956 37.3948 83.1956 37.484 83.1886 37.5727H78.4593C78.4851 37.761 78.5542 37.9408 78.6613 38.0982C78.7684 38.2556 78.9106 38.3865 79.0769 38.4806C79.4556 38.6836 79.8819 38.7835 80.3121 38.7699L80.295 38.7813ZM81.6045 36.2961C81.586 36.1407 81.5321 35.9915 81.4469 35.8598C81.3617 35.7281 81.2474 35.6173 81.1127 35.5358C80.812 35.3531 80.4645 35.2605 80.112 35.2691C79.7491 35.2644 79.3916 35.3565 79.0769 35.5358C78.9302 35.6119 78.8027 35.7197 78.7037 35.8513C78.6047 35.9829 78.5368 36.1349 78.505 36.2961H81.6045Z" fill="#EA0029"/>
<path d="M90.7257 35.6665C90.9974 36.2896 91.075 36.9792 90.9486 37.6465C90.8223 38.3138 90.4977 38.9284 90.0166 39.4113C89.7232 39.702 89.3755 39.9333 88.993 40.0921C88.6123 40.2568 88.2016 40.3418 87.7863 40.3418C87.3731 40.3531 86.9625 40.2716 86.5854 40.1035C86.3009 39.9902 86.0673 39.7786 85.9278 39.5077V42.7702H84.3609V33.8735H85.8935V34.5317C86.0379 34.2604 86.2751 34.0491 86.5626 33.9359C86.9461 33.7689 87.3619 33.6876 87.7806 33.6976C88.2004 33.6966 88.6162 33.7775 89.0044 33.9359C89.3899 34.0925 89.7398 34.324 90.0338 34.6168C90.3358 34.9183 90.5765 35.2747 90.7429 35.6665H90.7257ZM89.296 37.6921C89.3885 37.4769 89.4352 37.2451 89.4333 37.0112C89.436 36.7809 89.3892 36.5526 89.296 36.3417C89.2079 36.142 89.0795 35.9624 88.9186 35.814C88.753 35.6635 88.5585 35.5477 88.3468 35.4735C88.1067 35.3872 87.8529 35.3449 87.5976 35.3487C87.2343 35.3415 86.8749 35.4233 86.5511 35.587C86.2854 35.7077 86.0723 35.9192 85.9507 36.1828V37.8566C86.0723 38.1202 86.2854 38.3317 86.5511 38.4524C86.8749 38.616 87.2343 38.6979 87.5976 38.6907C87.8527 38.6917 88.106 38.6495 88.3468 38.5658C88.5585 38.4917 88.753 38.3759 88.9186 38.2254C89.0809 38.076 89.2095 37.8942 89.296 37.6921Z" fill="#EA0029"/>
<path d="M92.0753 34.8151C92.1955 34.6339 92.3441 34.473 92.5156 34.3385C92.6925 34.2021 92.8843 34.086 93.0875 33.9924C93.3073 33.8952 93.5375 33.8229 93.7737 33.7768C94.0148 33.7295 94.2599 33.7048 94.5057 33.703C94.8937 33.6974 95.2801 33.7549 95.6494 33.8732C95.9727 33.9789 96.272 34.1466 96.5301 34.3669C96.7793 34.5826 96.975 34.8525 97.1019 35.1555C97.2506 35.4959 97.3285 35.8626 97.3307 36.2336V40.2053H95.8153V39.6379C95.6395 39.8919 95.3842 40.0814 95.089 40.177C94.4672 40.4138 93.7815 40.4279 93.1504 40.2167C92.8844 40.1209 92.6369 39.9808 92.4184 39.8025C92.2073 39.6279 92.0407 39.4062 91.9323 39.1557C91.8148 38.8833 91.7563 38.5895 91.7608 38.2932C91.7552 37.9865 91.8238 37.683 91.9609 37.4081C92.1019 37.1538 92.297 36.9331 92.5328 36.7613C92.772 36.5834 93.0411 36.4489 93.3277 36.3641C93.6299 36.2733 93.944 36.2274 94.2598 36.2279C94.601 36.2167 94.9417 36.2647 95.2663 36.3698C95.4631 36.4236 95.6424 36.5272 95.7866 36.6705V36.5003C95.795 36.3356 95.7671 36.1711 95.7049 36.0183C95.6427 35.8654 95.5476 35.7278 95.4264 35.6151C95.1229 35.3785 94.7421 35.2613 94.357 35.286C93.9818 35.2811 93.6103 35.3606 93.2705 35.5187C92.9726 35.6464 92.7084 35.8405 92.4984 36.0861L92.0753 34.8151ZM95.7466 37.9131C95.6421 37.7675 95.4909 37.6615 95.3177 37.6123C95.0727 37.5221 94.8128 37.4779 94.5514 37.4819C94.2319 37.4615 93.9129 37.5303 93.6307 37.6804C93.5366 37.7288 93.4579 37.8022 93.4034 37.8923C93.3489 37.9825 93.3207 38.0859 93.3219 38.1911C93.3212 38.2968 93.3502 38.4007 93.4058 38.4909C93.4614 38.5811 93.5413 38.6542 93.6365 38.7017C93.9154 38.843 94.2274 38.9076 94.54 38.889C94.8036 38.8936 95.0651 38.8414 95.3063 38.7358C95.4919 38.6647 95.6474 38.5325 95.7466 38.3613V37.9131Z" fill="#EA0029"/>
<path d="M104.496 33.8789H106.012L107.012 40.177H105.457L104.902 36.8464L103.427 40.177H102.169L100.688 36.8464L100.121 40.177H98.5316L99.5209 33.8789H100.922L102.712 37.9017L104.496 33.8789Z" fill="#EA0029"/>
<path d="M109.82 33.8789V37.6577L112.691 33.8789H114.258V40.177H112.719V36.3981L109.849 40.177H108.282V33.8789H109.82Z" fill="#EA0029"/>
<path d="M124.208 39.2182C123.981 39.5646 123.66 39.84 123.282 40.0125C122.819 40.2439 122.307 40.3589 121.789 40.3473C121.358 40.3475 120.931 40.2646 120.531 40.1033C119.726 39.781 119.081 39.1574 118.735 38.3671C118.377 37.5039 118.377 36.5352 118.735 35.672C118.909 35.2787 119.158 34.9223 119.467 34.6223C119.774 34.3288 120.135 34.0975 120.531 33.9414C120.931 33.7819 121.358 33.701 121.789 33.7031C122.301 33.6901 122.809 33.8052 123.265 34.0379C123.632 34.2085 123.941 34.4803 124.157 34.8209L123.716 36.1146C123.517 35.8964 123.279 35.7174 123.013 35.5869C122.688 35.4281 122.329 35.3484 121.966 35.3543C121.463 35.3297 120.969 35.4938 120.583 35.8138C120.413 35.9648 120.279 36.1507 120.191 36.3585C120.102 36.5664 120.06 36.7911 120.068 37.0167C120.06 37.244 120.101 37.4704 120.19 37.6801C120.279 37.8898 120.413 38.0778 120.583 38.2309C120.969 38.553 121.463 38.7191 121.966 38.6962C122.334 38.7021 122.697 38.6184 123.024 38.4522C123.294 38.306 123.536 38.1139 123.739 37.8848L124.208 39.2182Z" fill="#EA0029"/>
<path d="M130.304 35.53H128.348V40.177H126.782V35.53H124.82V33.8789H130.304V35.53Z" fill="#EA0029"/>
<path d="M131.242 34.815C131.364 34.6351 131.512 34.4744 131.682 34.3384C131.859 34.202 132.051 34.0859 132.254 33.9923C132.475 33.8967 132.705 33.8245 132.94 33.7767C133.182 33.7294 133.427 33.7047 133.672 33.7029C134.06 33.6983 134.447 33.7557 134.816 33.8731C135.138 33.9814 135.437 34.1488 135.697 34.3667C135.946 34.5821 136.142 34.8521 136.269 35.1554C136.409 35.4935 136.477 35.8567 136.469 36.2221V40.1939H134.953V39.6265C134.779 39.8817 134.523 40.0715 134.227 40.1655C133.607 40.401 132.924 40.415 132.294 40.2052C132.027 40.112 131.779 39.9717 131.562 39.791C131.348 39.6178 131.18 39.3959 131.07 39.1442C130.953 38.8718 130.894 38.578 130.899 38.2817C130.893 37.9743 130.963 37.6702 131.105 37.3966C131.244 37.141 131.439 36.9199 131.677 36.7498C131.915 36.5698 132.184 36.4351 132.472 36.3526C132.772 36.2614 133.084 36.2155 133.398 36.2164C133.739 36.2048 134.08 36.2528 134.404 36.3583C134.602 36.4138 134.783 36.5171 134.931 36.659V36.4888C134.938 36.3237 134.909 36.159 134.846 36.0061C134.783 35.8532 134.687 35.7159 134.565 35.6037C134.264 35.366 133.884 35.2485 133.501 35.2746C133.124 35.2697 132.75 35.3492 132.409 35.5072C132.111 35.6349 131.847 35.8291 131.637 36.0746L131.242 34.815ZM134.919 37.9129C134.811 37.7688 134.658 37.6634 134.484 37.6122C134.241 37.5224 133.983 37.4782 133.724 37.4817C133.402 37.4603 133.081 37.5291 132.797 37.6803C132.703 37.7287 132.625 37.802 132.57 37.8922C132.516 37.9824 132.487 38.0858 132.489 38.191C132.488 38.2967 132.517 38.4006 132.573 38.4908C132.628 38.581 132.708 38.654 132.803 38.7016C133.065 38.8191 133.348 38.8827 133.635 38.8885C133.922 38.8944 134.207 38.8424 134.473 38.7357C134.66 38.6644 134.817 38.5324 134.919 38.3612V37.9129Z" fill="#EA0029"/>
<path d="M139.585 33.8789V36.1144H142.37V33.8789H143.937V40.177H142.37V37.7655H139.585V40.177H138.019V33.8789H139.585Z" fill="#EA0029"/>
<path d="M151.818 37.0338C151.822 37.4889 151.729 37.9396 151.543 38.3558C151.371 38.7499 151.122 39.1065 150.811 39.4055C150.501 39.6986 150.138 39.9314 149.742 40.092C149.336 40.2606 148.901 40.3474 148.461 40.3474C148.021 40.3474 147.585 40.2606 147.18 40.092C146.786 39.9297 146.425 39.697 146.116 39.4055C145.632 38.9353 145.303 38.3307 145.173 37.6713C145.042 37.0119 145.116 36.3287 145.384 35.7118C145.556 35.3139 145.804 34.9534 146.116 34.6507C146.425 34.3557 146.785 34.1192 147.18 33.9529C148.001 33.6199 148.921 33.6199 149.742 33.9529C150.139 34.1178 150.501 34.3545 150.811 34.6507C151.121 34.9551 151.369 35.3152 151.543 35.7118C151.728 36.1281 151.822 36.5788 151.818 37.0338ZM146.825 36.3529C146.733 36.5681 146.686 36.7999 146.688 37.0338C146.685 37.2641 146.732 37.4923 146.825 37.7033C146.909 37.9038 147.036 38.0838 147.197 38.231C147.362 38.3821 147.557 38.498 147.769 38.5714C147.989 38.6563 148.224 38.6987 148.461 38.6962C148.697 38.6993 148.932 38.6569 149.153 38.5714C149.36 38.4961 149.55 38.3806 149.712 38.2315C149.874 38.0825 150.005 37.9029 150.096 37.7033C150.191 37.4927 150.24 37.2645 150.239 37.0338C150.239 36.7995 150.191 36.5677 150.096 36.3529C150.006 36.1516 149.875 35.9703 149.713 35.8196C149.547 35.6701 149.352 35.5544 149.141 35.4791C148.92 35.3964 148.686 35.3541 148.449 35.3543C148.213 35.3546 147.979 35.3969 147.757 35.4791C147.545 35.5526 147.351 35.6685 147.185 35.8196C147.023 35.9678 146.896 36.15 146.814 36.3529" fill="#EA0029"/>
<path d="M155.426 33.8734C155.729 33.8722 156.031 33.9104 156.324 33.9868C156.585 34.0518 156.832 34.1654 157.05 34.3216C157.254 34.4722 157.422 34.666 157.542 34.889C157.663 35.1344 157.723 35.4046 157.719 35.6777C157.727 35.8994 157.686 36.1201 157.599 36.3245C157.514 36.502 157.396 36.6618 157.25 36.7954C157.48 36.9415 157.675 37.135 157.822 37.3628C157.985 37.629 158.064 37.937 158.051 38.2479C158.057 38.5334 157.992 38.8159 157.862 39.0707C157.734 39.3025 157.559 39.5054 157.347 39.6664C157.125 39.8354 156.873 39.9623 156.604 40.0409C156.314 40.1256 156.014 40.1676 155.712 40.1657H152.973V33.8677L155.426 33.8734ZM154.517 35.3202V36.3812H155.626C155.707 36.3862 155.789 36.3746 155.866 36.3473C155.942 36.32 156.013 36.2775 156.072 36.2224C156.122 36.1755 156.162 36.1192 156.189 36.0568C156.217 35.9945 156.231 35.9273 156.232 35.8592C156.229 35.7171 156.172 35.5814 156.072 35.4791C156.011 35.4234 155.938 35.3806 155.86 35.3533C155.781 35.326 155.698 35.3147 155.615 35.3202H154.517ZM154.517 37.6409V38.7302H155.958C156.037 38.7344 156.116 38.723 156.191 38.6967C156.265 38.6704 156.334 38.6297 156.392 38.577C156.496 38.4705 156.553 38.3279 156.553 38.1799C156.548 38.0397 156.491 37.9063 156.392 37.8054C156.333 37.7495 156.263 37.7061 156.186 37.6779C156.11 37.6496 156.028 37.637 155.946 37.6409H154.517Z" fill="#EA0029"/>
<path d="M163.821 33.8731V40.1712H162.254V38.3045H161.734L160.453 40.1712H158.64L160.087 38.0718C159.733 37.8981 159.434 37.6312 159.223 37.3002C159.009 36.942 158.902 36.5307 158.914 36.1143C158.91 35.7913 158.972 35.4707 159.097 35.1725C159.215 34.9046 159.388 34.6648 159.606 34.4689C159.826 34.2706 160.085 34.1198 160.367 34.0263C160.672 33.9224 160.993 33.8707 161.316 33.8731H163.821ZM161.196 35.4391C161.096 35.4332 160.996 35.4483 160.902 35.4835C160.809 35.5187 160.724 35.5732 160.653 35.6434C160.589 35.7066 160.538 35.7818 160.504 35.8646C160.47 35.9474 160.452 36.0361 160.453 36.1257C160.448 36.2152 160.465 36.3045 160.501 36.3864C160.538 36.4682 160.594 36.5403 160.664 36.5966C160.813 36.7188 161.003 36.7815 161.196 36.7725H162.254V35.4391H161.196Z" fill="#EA0029"/>
<path d="M170.323 35.53H168.367V40.177H166.8V35.53H164.839V33.8789H170.323V35.53Z" fill="#EA0029"/>
<path d="M176.625 39.2181C176.398 39.5645 176.077 39.8399 175.698 40.0124C175.238 40.2431 174.727 40.3581 174.212 40.3472C173.778 40.348 173.349 40.2651 172.948 40.1032C172.143 39.7809 171.498 39.1573 171.152 38.367C170.794 37.5038 170.794 36.5351 171.152 35.6719C171.326 35.2786 171.574 34.9222 171.884 34.6222C172.191 34.3287 172.552 34.0974 172.948 33.9413C173.35 33.7812 173.779 33.7003 174.212 33.703C174.722 33.6907 175.227 33.8058 175.681 34.0378C176.048 34.2084 176.358 34.4802 176.573 34.8208L176.133 36.1145C175.934 35.8963 175.695 35.7173 175.43 35.5868C175.104 35.428 174.746 35.3483 174.383 35.3542C173.88 35.3296 173.386 35.4937 172.999 35.8137C172.83 35.9647 172.696 36.1506 172.607 36.3585C172.518 36.5663 172.477 36.791 172.485 37.0166C172.476 37.2439 172.518 37.4703 172.607 37.68C172.696 37.8897 172.83 38.0777 172.999 38.2308C173.385 38.5529 173.879 38.719 174.383 38.6961C174.751 38.702 175.114 38.6183 175.441 38.4521C175.711 38.3059 175.953 38.1139 176.156 37.8847L176.625 39.2181Z" fill="#EA0029"/>
<path d="M182.406 33.8731V40.1712H180.822V38.3045H180.302L179.021 40.1712H177.214L178.655 38.0718C178.301 37.8981 178.002 37.6312 177.791 37.3002C177.577 36.942 177.47 36.5307 177.483 36.1143C177.478 35.7913 177.54 35.4707 177.666 35.1725C177.783 34.9046 177.956 34.6648 178.175 34.4689C178.395 34.2718 178.654 34.1212 178.935 34.0263C179.241 33.9224 179.562 33.8707 179.884 33.8731H182.406ZM179.782 35.4391C179.682 35.4332 179.581 35.4483 179.488 35.4835C179.394 35.5187 179.309 35.5732 179.238 35.6434C179.174 35.7066 179.124 35.7818 179.089 35.8646C179.055 35.9474 179.038 36.0361 179.038 36.1257C179.033 36.2152 179.05 36.3045 179.087 36.3864C179.124 36.4682 179.179 36.5403 179.25 36.5966C179.399 36.7179 179.589 36.7804 179.782 36.7725H180.822V35.4391H179.782Z" fill="#EA0029"/>
<path d="M58.6214 33.8846L61.252 40.1826L59.3649 40.177L57.8723 36.4832L56.3798 40.177H54.4926L57.1232 33.8789L58.6214 33.8846Z" fill="#EA0029"/>
</svg>
