<svg width="28" height="28" viewBox="0 0 28 28" fill="none" xmlns="http://www.w3.org/2000/svg">
<g id="Socials / Vk">
<path id="Vector" fill-rule="evenodd" clip-rule="evenodd" d="M25.1316 9.1145C25.293 8.5685 25.1316 8.1665 24.3587 8.1665H21.8067C21.1573 8.1665 20.8578 8.5135 20.6955 8.8965C20.6955 8.8965 19.3976 12.0925 17.5591 14.1685C16.9642 14.7705 16.6939 14.9615 16.3692 14.9615C16.2068 14.9615 15.9628 14.7705 15.9628 14.2235V9.1145C15.9628 8.4585 15.7839 8.1665 15.2434 8.1665H11.2301C10.8247 8.1665 10.5807 8.4705 10.5807 8.7595C10.5807 9.3805 11.5004 9.5245 11.5947 11.2725V15.0705C11.5947 15.9035 11.4459 16.0545 11.1212 16.0545C10.256 16.0545 8.15115 12.8435 6.90187 9.1695C6.65979 8.4545 6.4148 8.1665 5.76245 8.1665H3.20848C2.47933 8.1665 2.3335 8.5135 2.3335 8.8965C2.3335 9.5785 3.19876 12.9665 6.36327 17.4475C8.47295 20.5075 11.443 22.1665 14.1487 22.1665C15.7713 22.1665 15.9715 21.7985 15.9715 21.1635V18.8505C15.9715 18.1135 16.1251 17.9665 16.6394 17.9665C17.0186 17.9665 17.6671 18.1585 19.1818 19.6335C20.9123 21.3825 21.1971 22.1665 22.1713 22.1665H24.7233C25.4525 22.1665 25.818 21.7985 25.608 21.0705C25.3766 20.3465 24.5502 19.2955 23.4546 18.0485C22.8596 17.3385 21.9671 16.5735 21.6959 16.1905C21.3177 15.6995 21.4256 15.4805 21.6959 15.0435C21.6959 15.0435 24.8069 10.6175 25.1307 9.1145H25.1316Z" fill="white"/>
</g>
</svg>
