<svg width="28" height="28" viewBox="0 0 28 28" fill="none" xmlns="http://www.w3.org/2000/svg">
<g id="Socials / Youtube">
<path id="Vector" d="M25.1782 8.3962C25.0461 7.90164 24.7888 7.45388 24.4336 7.10054C24.0684 6.73633 23.6208 6.47581 23.133 6.34355C21.3074 5.83856 13.9934 5.83856 13.9934 5.83856C10.9442 5.80215 7.89585 5.96228 4.86542 6.31805C4.37762 6.46007 3.93082 6.72642 3.56476 7.0934C3.20509 7.45659 2.94457 7.90446 2.80848 8.39518C2.48156 10.2435 2.32271 12.1203 2.3341 14.0002C2.32243 15.8783 2.48088 17.7545 2.80848 19.6051C2.94165 20.0938 3.2012 20.5396 3.56185 20.8998C3.92249 21.2599 4.3716 21.5201 4.86542 21.6578C6.71531 22.1618 13.9934 22.1618 13.9934 22.1618C17.0464 22.1982 20.0986 22.0381 23.133 21.6823C23.6208 21.55 24.0684 21.2895 24.4336 20.9253C24.7887 20.572 25.0457 20.1242 25.1773 19.6296C25.5127 17.782 25.6758 15.9045 25.6643 14.0236C25.6895 12.1348 25.5266 10.2484 25.1782 8.39518V8.3962ZM11.6681 17.4933V10.508L17.7534 14.0012L11.6681 17.4933Z" fill="white"/>
</g>
</svg>
